solid OpenSCAD_Model
  facet normal -0.34202 0.939693 0
    outer loop
      vertex 29.1667 16.3 -22.5
      vertex 27.4526 15.6761 -14.5
      vertex 29.1667 16.3 -14.5
    endloop
  endfacet
  facet normal -0.34202 0.939693 0
    outer loop
      vertex 27.4526 15.6761 -14.5
      vertex 29.1667 16.3 -22.5
      vertex 27.4526 15.6761 -22.5
    endloop
  endfacet
  facet normal 0 -1 0
    outer loop
      vertex 29.9667 11.1275 -22.5
      vertex 30.0787 11.1275 -14.5
      vertex 29.9667 11.1275 -14.5
    endloop
  endfacet
  facet normal 0 -1 -0
    outer loop
      vertex 30.0787 11.1275 -14.5
      vertex 29.9667 11.1275 -22.5
      vertex 30.0787 11.1275 -22.5
    endloop
  endfacet
  facet normal 0 -1 0
    outer loop
      vertex 28.2546 11.1275 -22.5
      vertex 28.3667 11.1275 -14.5
      vertex 28.2546 11.1275 -14.5
    endloop
  endfacet
  facet normal 0 -1 -0
    outer loop
      vertex 28.3667 11.1275 -14.5
      vertex 28.2546 11.1275 -22.5
      vertex 28.3667 11.1275 -22.5
    endloop
  endfacet
  facet normal 0 0 -1
    outer loop
      vertex -30.0067 -7.5 -22.5
      vertex -30.1243 -3.69114 -22.5
      vertex -30.0067 -3.69114 -22.5
    endloop
  endfacet
  facet normal 0 0 -1
    outer loop
      vertex -34.5 -7.5 -22.5
      vertex -30.1243 -3.69114 -22.5
      vertex -30.0067 -7.5 -22.5
    endloop
  endfacet
  facet normal -0 0 -1
    outer loop
      vertex -31.5915 -2.46 -22.5
      vertex -34.5 -7.5 -22.5
      vertex -31.9241 -0.573786 -22.5
    endloop
  endfacet
  facet normal -0 0 -1
    outer loop
      vertex -30.1243 -3.69114 -22.5
      vertex -34.5 -7.5 -22.5
      vertex -31.5915 -2.46 -22.5
    endloop
  endfacet
  facet normal 0 0 -1
    outer loop
      vertex 28.3267 -7.5 -22.5
      vertex 28.209 -3.69114 -22.5
      vertex 28.3267 -3.69114 -22.5
    endloop
  endfacet
  facet normal 0 0 -1
    outer loop
      vertex 28.3267 -7.5 -22.5
      vertex 26.7418 -2.46 -22.5
      vertex 28.209 -3.69114 -22.5
    endloop
  endfacet
  facet normal 0 0 -1
    outer loop
      vertex 26.7418 -2.46 -22.5
      vertex 13.3333 -1 -22.5
      vertex 26.4092 -0.573786 -22.5
    endloop
  endfacet
  facet normal 0 0 -1
    outer loop
      vertex 28.3267 -7.5 -22.5
      vertex 13.3333 -1 -22.5
      vertex 26.7418 -2.46 -22.5
    endloop
  endfacet
  facet normal 0 0 -1
    outer loop
      vertex 28.3267 -7.5 -22.5
      vertex -13.3333 -1 -22.5
      vertex 13.3333 -1 -22.5
    endloop
  endfacet
  facet normal 0 0 -1
    outer loop
      vertex -13.3333 -1 -22.5
      vertex -26.4092 -0.573786 -22.5
      vertex -13.3333 7.5 -22.5
    endloop
  endfacet
  facet normal 0 0 -1
    outer loop
      vertex -28.3267 -7.5 -22.5
      vertex -13.3333 -1 -22.5
      vertex 28.3267 -7.5 -22.5
    endloop
  endfacet
  facet normal -0 0 -1
    outer loop
      vertex -13.3333 -1 -22.5
      vertex -26.7418 -2.46 -22.5
      vertex -26.4092 -0.573786 -22.5
    endloop
  endfacet
  facet normal 0 0 -1
    outer loop
      vertex -13.3333 -1 -22.5
      vertex -28.3267 -7.5 -22.5
      vertex -26.7418 -2.46 -22.5
    endloop
  endfacet
  facet normal 0 0 -1
    outer loop
      vertex -26.7418 -2.46 -22.5
      vertex -28.3267 -7.5 -22.5
      vertex -28.209 -3.69114 -22.5
    endloop
  endfacet
  facet normal -0 0 -1
    outer loop
      vertex -28.209 -3.69114 -22.5
      vertex -28.3267 -7.5 -22.5
      vertex -28.3267 -3.69114 -22.5
    endloop
  endfacet
  facet normal 0 0 -1
    outer loop
      vertex 34.5 -7.5 -22.5
      vertex 31.9241 -0.573786 -22.5
      vertex 34.5 7.5 -22.5
    endloop
  endfacet
  facet normal 0 0 -1
    outer loop
      vertex 34.5 -7.5 -22.5
      vertex 31.5915 -2.46 -22.5
      vertex 31.9241 -0.573786 -22.5
    endloop
  endfacet
  facet normal 0 0 -1
    outer loop
      vertex 34.5 -7.5 -22.5
      vertex 30.1243 -3.69114 -22.5
      vertex 31.5915 -2.46 -22.5
    endloop
  endfacet
  facet normal 0 0 -1
    outer loop
      vertex 30.0067 -7.5 -22.5
      vertex 30.1243 -3.69114 -22.5
      vertex 34.5 -7.5 -22.5
    endloop
  endfacet
  facet normal -0 0 -1
    outer loop
      vertex 30.1243 -3.69114 -22.5
      vertex 30.0067 -7.5 -22.5
      vertex 30.0067 -3.69114 -22.5
    endloop
  endfacet
  facet normal 0 0 -1
    outer loop
      vertex 30.9665 1.08492 -22.5
      vertex 34.5 7.5 -22.5
      vertex 31.9241 -0.573786 -22.5
    endloop
  endfacet
  facet normal 0 0 -1
    outer loop
      vertex 30.9665 1.08492 -22.5
      vertex 29.9667 7.5 -22.5
      vertex 34.5 7.5 -22.5
    endloop
  endfacet
  facet normal 0 0 -1
    outer loop
      vertex 28.3667 7.5 -22.5
      vertex 29.9667 7.5 -22.5
      vertex 29.1667 1.74 -22.5
    endloop
  endfacet
  facet normal 0 0 -1
    outer loop
      vertex 29.1667 1.74 -22.5
      vertex 29.9667 7.5 -22.5
      vertex 30.9665 1.08492 -22.5
    endloop
  endfacet
  facet normal 0 0 -1
    outer loop
      vertex 29.9667 11.1275 -22.5
      vertex 31.7928 14.0964 -22.5
      vertex 31.4761 12.3 -22.5
    endloop
  endfacet
  facet normal 0 0 -1
    outer loop
      vertex 29.9667 11.1275 -22.5
      vertex 31.4761 12.3 -22.5
      vertex 30.0787 11.1275 -22.5
    endloop
  endfacet
  facet normal -0 0 -1
    outer loop
      vertex 31.7928 14.0964 -22.5
      vertex 29.9667 11.1275 -22.5
      vertex 30.8808 15.6761 -22.5
    endloop
  endfacet
  facet normal 0 0 -1
    outer loop
      vertex 29.9667 11.1275 -22.5
      vertex 29.1667 16.3 -22.5
      vertex 30.8808 15.6761 -22.5
    endloop
  endfacet
  facet normal 0 0 -1
    outer loop
      vertex 29.9667 7.5 -22.5
      vertex 28.3667 7.5 -22.5
      vertex 29.9667 11.1275 -22.5
    endloop
  endfacet
  facet normal 0 0 -1
    outer loop
      vertex 28.3667 11.1275 -22.5
      vertex 29.9667 11.1275 -22.5
      vertex 28.3667 7.5 -22.5
    endloop
  endfacet
  facet normal 0 0 -1
    outer loop
      vertex 27.3669 1.08492 -22.5
      vertex 28.3667 7.5 -22.5
      vertex 29.1667 1.74 -22.5
    endloop
  endfacet
  facet normal 0 0 -1
    outer loop
      vertex 13.3333 7.5 -22.5
      vertex 27.3669 1.08492 -22.5
      vertex 26.4092 -0.573786 -22.5
    endloop
  endfacet
  facet normal 0 0 -1
    outer loop
      vertex 13.3333 7.5 -22.5
      vertex 26.4092 -0.573786 -22.5
      vertex 13.3333 -1 -22.5
    endloop
  endfacet
  facet normal 0 0 -1
    outer loop
      vertex 27.3669 1.08492 -22.5
      vertex 13.3333 7.5 -22.5
      vertex 28.3667 7.5 -22.5
    endloop
  endfacet
  facet normal 0 0 -1
    outer loop
      vertex 29.9667 11.1275 -22.5
      vertex 28.3667 11.1275 -22.5
      vertex 29.1667 16.3 -22.5
    endloop
  endfacet
  facet normal 0 0 -1
    outer loop
      vertex 26.8573 12.3 -22.5
      vertex 28.3667 11.1275 -22.5
      vertex 28.2546 11.1275 -22.5
    endloop
  endfacet
  facet normal 0 0 -1
    outer loop
      vertex 28.3667 11.1275 -22.5
      vertex 27.4526 15.6761 -22.5
      vertex 29.1667 16.3 -22.5
    endloop
  endfacet
  facet normal 0 0 -1
    outer loop
      vertex 26.5405 14.0964 -22.5
      vertex 28.3667 11.1275 -22.5
      vertex 26.8573 12.3 -22.5
    endloop
  endfacet
  facet normal 0 0 -1
    outer loop
      vertex 28.3667 11.1275 -22.5
      vertex 26.5405 14.0964 -22.5
      vertex 27.4526 15.6761 -22.5
    endloop
  endfacet
  facet normal 0 0 -1
    outer loop
      vertex -27.3669 1.08492 -22.5
      vertex -13.3333 7.5 -22.5
      vertex -26.4092 -0.573786 -22.5
    endloop
  endfacet
  facet normal 0 0 -1
    outer loop
      vertex -27.3669 1.08492 -22.5
      vertex -28.3667 7.5 -22.5
      vertex -13.3333 7.5 -22.5
    endloop
  endfacet
  facet normal 0 0 -1
    outer loop
      vertex -29.9667 7.5 -22.5
      vertex -28.3667 7.5 -22.5
      vertex -29.1667 1.74 -22.5
    endloop
  endfacet
  facet normal 0 0 -1
    outer loop
      vertex -29.1667 1.74 -22.5
      vertex -28.3667 7.5 -22.5
      vertex -27.3669 1.08492 -22.5
    endloop
  endfacet
  facet normal 0 0 -1
    outer loop
      vertex -28.3667 11.1275 -22.5
      vertex -26.5405 14.0964 -22.5
      vertex -26.8573 12.3 -22.5
    endloop
  endfacet
  facet normal 0 0 -1
    outer loop
      vertex -28.3667 11.1275 -22.5
      vertex -26.8573 12.3 -22.5
      vertex -28.2546 11.1275 -22.5
    endloop
  endfacet
  facet normal -0 0 -1
    outer loop
      vertex -26.5405 14.0964 -22.5
      vertex -28.3667 11.1275 -22.5
      vertex -27.4526 15.6761 -22.5
    endloop
  endfacet
  facet normal 0 0 -1
    outer loop
      vertex -28.3667 11.1275 -22.5
      vertex -29.1667 16.3 -22.5
      vertex -27.4526 15.6761 -22.5
    endloop
  endfacet
  facet normal 0 0 -1
    outer loop
      vertex -28.3667 7.5 -22.5
      vertex -29.9667 7.5 -22.5
      vertex -28.3667 11.1275 -22.5
    endloop
  endfacet
  facet normal 0 0 -1
    outer loop
      vertex -29.9667 11.1275 -22.5
      vertex -28.3667 11.1275 -22.5
      vertex -29.9667 7.5 -22.5
    endloop
  endfacet
  facet normal 0 0 -1
    outer loop
      vertex -30.9665 1.08492 -22.5
      vertex -29.9667 7.5 -22.5
      vertex -29.1667 1.74 -22.5
    endloop
  endfacet
  facet normal 0 0 -1
    outer loop
      vertex -34.5 7.5 -22.5
      vertex -30.9665 1.08492 -22.5
      vertex -31.9241 -0.573786 -22.5
    endloop
  endfacet
  facet normal 0 0 -1
    outer loop
      vertex -34.5 7.5 -22.5
      vertex -31.9241 -0.573786 -22.5
      vertex -34.5 -7.5 -22.5
    endloop
  endfacet
  facet normal 0 0 -1
    outer loop
      vertex -30.9665 1.08492 -22.5
      vertex -34.5 7.5 -22.5
      vertex -29.9667 7.5 -22.5
    endloop
  endfacet
  facet normal 0 0 -1
    outer loop
      vertex -28.3667 11.1275 -22.5
      vertex -29.9667 11.1275 -22.5
      vertex -29.1667 16.3 -22.5
    endloop
  endfacet
  facet normal 0 0 -1
    outer loop
      vertex -31.4761 12.3 -22.5
      vertex -29.9667 11.1275 -22.5
      vertex -30.0787 11.1275 -22.5
    endloop
  endfacet
  facet normal 0 0 -1
    outer loop
      vertex -29.9667 11.1275 -22.5
      vertex -30.8808 15.6761 -22.5
      vertex -29.1667 16.3 -22.5
    endloop
  endfacet
  facet normal 0 0 -1
    outer loop
      vertex -31.7928 14.0964 -22.5
      vertex -29.9667 11.1275 -22.5
      vertex -31.4761 12.3 -22.5
    endloop
  endfacet
  facet normal 0 0 -1
    outer loop
      vertex -29.9667 11.1275 -22.5
      vertex -31.7928 14.0964 -22.5
      vertex -30.8808 15.6761 -22.5
    endloop
  endfacet
  facet normal -0.984808 -0.173648 0
    outer loop
      vertex 26.8573 12.3 -22.5
      vertex 26.5405 14.0964 -14.5
      vertex 26.5405 14.0964 -22.5
    endloop
  endfacet
  facet normal -0.984808 -0.173648 0
    outer loop
      vertex 26.5405 14.0964 -14.5
      vertex 26.8573 12.3 -22.5
      vertex 26.8573 12.3 -14.5
    endloop
  endfacet
  facet normal -0.866025 0.5 0
    outer loop
      vertex 26.5405 14.0964 -22.5
      vertex 27.4526 15.6761 -14.5
      vertex 27.4526 15.6761 -22.5
    endloop
  endfacet
  facet normal -0.866025 0.5 0
    outer loop
      vertex 27.4526 15.6761 -14.5
      vertex 26.5405 14.0964 -22.5
      vertex 26.5405 14.0964 -14.5
    endloop
  endfacet
  facet normal -0 0 1
    outer loop
      vertex 27.4526 15.6761 -14.5
      vertex 28.3667 11.1275 -14.5
      vertex 29.1667 16.3 -14.5
    endloop
  endfacet
  facet normal -0 0 1
    outer loop
      vertex 26.5405 14.0964 -14.5
      vertex 28.3667 11.1275 -14.5
      vertex 27.4526 15.6761 -14.5
    endloop
  endfacet
  facet normal 0 0 1
    outer loop
      vertex 28.3667 11.1275 -14.5
      vertex 26.8573 12.3 -14.5
      vertex 28.2546 11.1275 -14.5
    endloop
  endfacet
  facet normal 0 0 1
    outer loop
      vertex 28.3667 11.1275 -14.5
      vertex 26.5405 14.0964 -14.5
      vertex 26.8573 12.3 -14.5
    endloop
  endfacet
  facet normal 0 0 1
    outer loop
      vertex 29.9667 11.1275 -14.5
      vertex 31.7928 14.0964 -14.5
      vertex 30.8808 15.6761 -14.5
    endloop
  endfacet
  facet normal 0 0 1
    outer loop
      vertex 31.7928 14.0964 -14.5
      vertex 29.9667 11.1275 -14.5
      vertex 31.4761 12.3 -14.5
    endloop
  endfacet
  facet normal 0 0 1
    outer loop
      vertex 31.4761 12.3 -14.5
      vertex 29.9667 11.1275 -14.5
      vertex 30.0787 11.1275 -14.5
    endloop
  endfacet
  facet normal 0 0 1
    outer loop
      vertex 29.1667 16.3 -14.5
      vertex 29.9667 11.1275 -14.5
      vertex 30.8808 15.6761 -14.5
    endloop
  endfacet
  facet normal 0 0 1
    outer loop
      vertex 28.3667 11.1275 -14.5
      vertex 29.9667 11.1275 -14.5
      vertex 29.1667 16.3 -14.5
    endloop
  endfacet
  facet normal 0 0 1
    outer loop
      vertex 29.9667 11.1275 -14.5
      vertex 28.3667 11.1275 -14.5
      vertex 29.9667 7.5 -14.5
    endloop
  endfacet
  facet normal 0 0 1
    outer loop
      vertex 29.9667 7.5 -14.5
      vertex 28.3667 11.1275 -14.5
      vertex 28.3667 7.5 -14.5
    endloop
  endfacet
  facet normal -0.642787 -0.766045 0
    outer loop
      vertex 26.8573 12.3 -22.5
      vertex 28.2546 11.1275 -14.5
      vertex 26.8573 12.3 -14.5
    endloop
  endfacet
  facet normal -0.642787 -0.766045 -0
    outer loop
      vertex 28.2546 11.1275 -14.5
      vertex 26.8573 12.3 -22.5
      vertex 28.2546 11.1275 -22.5
    endloop
  endfacet
  facet normal 0.866025 0.5 0
    outer loop
      vertex 31.7928 14.0964 -14.5
      vertex 30.8808 15.6761 -22.5
      vertex 30.8808 15.6761 -14.5
    endloop
  endfacet
  facet normal 0.866025 0.5 0
    outer loop
      vertex 30.8808 15.6761 -22.5
      vertex 31.7928 14.0964 -14.5
      vertex 31.7928 14.0964 -22.5
    endloop
  endfacet
  facet normal 0.642788 -0.766044 0
    outer loop
      vertex 30.0787 11.1275 -22.5
      vertex 31.4761 12.3 -14.5
      vertex 30.0787 11.1275 -14.5
    endloop
  endfacet
  facet normal 0.642788 -0.766044 0
    outer loop
      vertex 31.4761 12.3 -14.5
      vertex 30.0787 11.1275 -22.5
      vertex 31.4761 12.3 -22.5
    endloop
  endfacet
  facet normal 0.34202 0.939693 -0
    outer loop
      vertex 30.8808 15.6761 -22.5
      vertex 29.1667 16.3 -14.5
      vertex 30.8808 15.6761 -14.5
    endloop
  endfacet
  facet normal 0.34202 0.939693 0
    outer loop
      vertex 29.1667 16.3 -14.5
      vertex 30.8808 15.6761 -22.5
      vertex 29.1667 16.3 -22.5
    endloop
  endfacet
  facet normal 0.984808 -0.173648 0
    outer loop
      vertex 31.4761 12.3 -14.5
      vertex 31.7928 14.0964 -22.5
      vertex 31.7928 14.0964 -14.5
    endloop
  endfacet
  facet normal 0.984808 -0.173648 0
    outer loop
      vertex 31.7928 14.0964 -22.5
      vertex 31.4761 12.3 -14.5
      vertex 31.4761 12.3 -22.5
    endloop
  endfacet
  facet normal 1 -0 0
    outer loop
      vertex 29.9667 7.5 -14.5
      vertex 29.9667 11.1275 -22.5
      vertex 29.9667 11.1275 -14.5
    endloop
  endfacet
  facet normal 1 0 0
    outer loop
      vertex 29.9667 11.1275 -22.5
      vertex 29.9667 7.5 -14.5
      vertex 29.9667 7.5 -22.5
    endloop
  endfacet
  facet normal -1 0 0
    outer loop
      vertex 28.3667 7.5 -22.5
      vertex 28.3667 11.1275 -14.5
      vertex 28.3667 11.1275 -22.5
    endloop
  endfacet
  facet normal -1 -0 0
    outer loop
      vertex 28.3667 11.1275 -14.5
      vertex 28.3667 7.5 -22.5
      vertex 28.3667 7.5 -14.5
    endloop
  endfacet
  facet normal -0.34202 0.939693 0
    outer loop
      vertex -29.1667 16.3 -22.5
      vertex -30.8808 15.6761 -14.5
      vertex -29.1667 16.3 -14.5
    endloop
  endfacet
  facet normal -0.34202 0.939693 0
    outer loop
      vertex -30.8808 15.6761 -14.5
      vertex -29.1667 16.3 -22.5
      vertex -30.8808 15.6761 -22.5
    endloop
  endfacet
  facet normal 0 -1 0
    outer loop
      vertex -28.3667 11.1275 -22.5
      vertex -28.2546 11.1275 -14.5
      vertex -28.3667 11.1275 -14.5
    endloop
  endfacet
  facet normal 0 -1 -0
    outer loop
      vertex -28.2546 11.1275 -14.5
      vertex -28.3667 11.1275 -22.5
      vertex -28.2546 11.1275 -22.5
    endloop
  endfacet
  facet normal 0 -1 0
    outer loop
      vertex -30.0787 11.1275 -22.5
      vertex -29.9667 11.1275 -14.5
      vertex -30.0787 11.1275 -14.5
    endloop
  endfacet
  facet normal 0 -1 -0
    outer loop
      vertex -29.9667 11.1275 -14.5
      vertex -30.0787 11.1275 -22.5
      vertex -29.9667 11.1275 -22.5
    endloop
  endfacet
  facet normal -0.984808 -0.173648 0
    outer loop
      vertex -31.4761 12.3 -22.5
      vertex -31.7928 14.0964 -14.5
      vertex -31.7928 14.0964 -22.5
    endloop
  endfacet
  facet normal -0.984808 -0.173648 0
    outer loop
      vertex -31.7928 14.0964 -14.5
      vertex -31.4761 12.3 -22.5
      vertex -31.4761 12.3 -14.5
    endloop
  endfacet
  facet normal -0.866025 0.5 0
    outer loop
      vertex -31.7928 14.0964 -22.5
      vertex -30.8808 15.6761 -14.5
      vertex -30.8808 15.6761 -22.5
    endloop
  endfacet
  facet normal -0.866025 0.5 0
    outer loop
      vertex -30.8808 15.6761 -14.5
      vertex -31.7928 14.0964 -22.5
      vertex -31.7928 14.0964 -14.5
    endloop
  endfacet
  facet normal -0 0 1
    outer loop
      vertex -30.8808 15.6761 -14.5
      vertex -29.9667 11.1275 -14.5
      vertex -29.1667 16.3 -14.5
    endloop
  endfacet
  facet normal -0 0 1
    outer loop
      vertex -31.7928 14.0964 -14.5
      vertex -29.9667 11.1275 -14.5
      vertex -30.8808 15.6761 -14.5
    endloop
  endfacet
  facet normal 0 0 1
    outer loop
      vertex -29.9667 11.1275 -14.5
      vertex -31.4761 12.3 -14.5
      vertex -30.0787 11.1275 -14.5
    endloop
  endfacet
  facet normal 0 0 1
    outer loop
      vertex -29.9667 11.1275 -14.5
      vertex -31.7928 14.0964 -14.5
      vertex -31.4761 12.3 -14.5
    endloop
  endfacet
  facet normal 0 0 1
    outer loop
      vertex -28.3667 11.1275 -14.5
      vertex -26.5405 14.0964 -14.5
      vertex -27.4526 15.6761 -14.5
    endloop
  endfacet
  facet normal 0 0 1
    outer loop
      vertex -26.5405 14.0964 -14.5
      vertex -28.3667 11.1275 -14.5
      vertex -26.8573 12.3 -14.5
    endloop
  endfacet
  facet normal 0 0 1
    outer loop
      vertex -26.8573 12.3 -14.5
      vertex -28.3667 11.1275 -14.5
      vertex -28.2546 11.1275 -14.5
    endloop
  endfacet
  facet normal 0 0 1
    outer loop
      vertex -29.1667 16.3 -14.5
      vertex -28.3667 11.1275 -14.5
      vertex -27.4526 15.6761 -14.5
    endloop
  endfacet
  facet normal 0 0 1
    outer loop
      vertex -29.9667 11.1275 -14.5
      vertex -28.3667 11.1275 -14.5
      vertex -29.1667 16.3 -14.5
    endloop
  endfacet
  facet normal 0 0 1
    outer loop
      vertex -28.3667 11.1275 -14.5
      vertex -29.9667 11.1275 -14.5
      vertex -28.3667 7.5 -14.5
    endloop
  endfacet
  facet normal 0 0 1
    outer loop
      vertex -28.3667 7.5 -14.5
      vertex -29.9667 11.1275 -14.5
      vertex -29.9667 7.5 -14.5
    endloop
  endfacet
  facet normal -0.642788 -0.766044 0
    outer loop
      vertex -31.4761 12.3 -22.5
      vertex -30.0787 11.1275 -14.5
      vertex -31.4761 12.3 -14.5
    endloop
  endfacet
  facet normal -0.642788 -0.766044 -0
    outer loop
      vertex -30.0787 11.1275 -14.5
      vertex -31.4761 12.3 -22.5
      vertex -30.0787 11.1275 -22.5
    endloop
  endfacet
  facet normal 0.866025 0.5 0
    outer loop
      vertex -26.5405 14.0964 -14.5
      vertex -27.4526 15.6761 -22.5
      vertex -27.4526 15.6761 -14.5
    endloop
  endfacet
  facet normal 0.866025 0.5 0
    outer loop
      vertex -27.4526 15.6761 -22.5
      vertex -26.5405 14.0964 -14.5
      vertex -26.5405 14.0964 -22.5
    endloop
  endfacet
  facet normal 0.642787 -0.766045 0
    outer loop
      vertex -28.2546 11.1275 -22.5
      vertex -26.8573 12.3 -14.5
      vertex -28.2546 11.1275 -14.5
    endloop
  endfacet
  facet normal 0.642787 -0.766045 0
    outer loop
      vertex -26.8573 12.3 -14.5
      vertex -28.2546 11.1275 -22.5
      vertex -26.8573 12.3 -22.5
    endloop
  endfacet
  facet normal 0.34202 0.939693 -0
    outer loop
      vertex -27.4526 15.6761 -22.5
      vertex -29.1667 16.3 -14.5
      vertex -27.4526 15.6761 -14.5
    endloop
  endfacet
  facet normal 0.34202 0.939693 0
    outer loop
      vertex -29.1667 16.3 -14.5
      vertex -27.4526 15.6761 -22.5
      vertex -29.1667 16.3 -22.5
    endloop
  endfacet
  facet normal 0.984808 -0.173648 0
    outer loop
      vertex -26.8573 12.3 -14.5
      vertex -26.5405 14.0964 -22.5
      vertex -26.5405 14.0964 -14.5
    endloop
  endfacet
  facet normal 0.984808 -0.173648 0
    outer loop
      vertex -26.5405 14.0964 -22.5
      vertex -26.8573 12.3 -14.5
      vertex -26.8573 12.3 -22.5
    endloop
  endfacet
  facet normal 1 -0 0
    outer loop
      vertex -28.3667 7.5 -14.5
      vertex -28.3667 11.1275 -22.5
      vertex -28.3667 11.1275 -14.5
    endloop
  endfacet
  facet normal 1 0 0
    outer loop
      vertex -28.3667 11.1275 -22.5
      vertex -28.3667 7.5 -14.5
      vertex -28.3667 7.5 -22.5
    endloop
  endfacet
  facet normal -1 0 0
    outer loop
      vertex -29.9667 7.5 -22.5
      vertex -29.9667 11.1275 -14.5
      vertex -29.9667 11.1275 -22.5
    endloop
  endfacet
  facet normal -1 -0 0
    outer loop
      vertex -29.9667 11.1275 -14.5
      vertex -29.9667 7.5 -22.5
      vertex -29.9667 7.5 -14.5
    endloop
  endfacet
  facet normal -1 0 0
    outer loop
      vertex -34.5 7.5 -22.5
      vertex -34.5 -1 0
      vertex -34.5 7.5 0
    endloop
  endfacet
  facet normal -1 0 0
    outer loop
      vertex -34.5 -7.5 -22.5
      vertex -34.5 -1 0
      vertex -34.5 7.5 -22.5
    endloop
  endfacet
  facet normal -1 0 0
    outer loop
      vertex -34.5 -7.5 22.5
      vertex -34.5 -1 0
      vertex -34.5 -7.5 -22.5
    endloop
  endfacet
  facet normal -1 0 0
    outer loop
      vertex -34.5 -1 0
      vertex -34.5 -7.5 22.5
      vertex -34.5 -1 22.5
    endloop
  endfacet
  facet normal -0 0 1
    outer loop
      vertex -34.5 -1 22.5
      vertex -20 -7.5 22.5
      vertex -20 -1 22.5
    endloop
  endfacet
  facet normal 0 0 1
    outer loop
      vertex -20 -7.5 22.5
      vertex -34.5 -1 22.5
      vertex -34.5 -7.5 22.5
    endloop
  endfacet
  facet normal -0 0 1
    outer loop
      vertex 20 -1 22.5
      vertex 34.5 -7.5 22.5
      vertex 34.5 -1 22.5
    endloop
  endfacet
  facet normal 0 0 1
    outer loop
      vertex 34.5 -7.5 22.5
      vertex 20 -1 22.5
      vertex 20 -7.5 22.5
    endloop
  endfacet
  facet normal 1 0 0
    outer loop
      vertex 34.5 -1 22.5
      vertex 34.5 -7.5 22.5
      vertex 34.5 -1 0
    endloop
  endfacet
  facet normal 1 -0 0
    outer loop
      vertex 34.5 -1 0
      vertex 34.5 7.5 -22.5
      vertex 34.5 7.5 0
    endloop
  endfacet
  facet normal 1 0 0
    outer loop
      vertex 34.5 -1 0
      vertex 34.5 -7.5 -22.5
      vertex 34.5 7.5 -22.5
    endloop
  endfacet
  facet normal 1 0 0
    outer loop
      vertex 34.5 -7.5 -22.5
      vertex 34.5 -1 0
      vertex 34.5 -7.5 22.5
    endloop
  endfacet
  facet normal 0 1 0
    outer loop
      vertex -13.3333 7.5 -13.5
      vertex -28.3667 7.5 -14.5
      vertex -31 7.5 -13.5
    endloop
  endfacet
  facet normal 0 1 -0
    outer loop
      vertex -13.3333 7.5 -22.5
      vertex -28.3667 7.5 -14.5
      vertex -13.3333 7.5 -13.5
    endloop
  endfacet
  facet normal 0 1 0
    outer loop
      vertex -28.3667 7.5 -14.5
      vertex -13.3333 7.5 -22.5
      vertex -28.3667 7.5 -22.5
    endloop
  endfacet
  facet normal 0 1 -0
    outer loop
      vertex -31 7.5 -13.5
      vertex -34.5 7.5 0
      vertex -31 7.5 0
    endloop
  endfacet
  facet normal 0 1 -0
    outer loop
      vertex -29.9667 7.5 -14.5
      vertex -31 7.5 -13.5
      vertex -28.3667 7.5 -14.5
    endloop
  endfacet
  facet normal 0 1 0
    outer loop
      vertex -34.5 7.5 -22.5
      vertex -29.9667 7.5 -14.5
      vertex -29.9667 7.5 -22.5
    endloop
  endfacet
  facet normal 0 1 0
    outer loop
      vertex -29.9667 7.5 -14.5
      vertex -34.5 7.5 -22.5
      vertex -31 7.5 -13.5
    endloop
  endfacet
  facet normal 0 1 0
    outer loop
      vertex -31 7.5 -13.5
      vertex -34.5 7.5 -22.5
      vertex -34.5 7.5 0
    endloop
  endfacet
  facet normal 0 1 0
    outer loop
      vertex 34.5 7.5 0
      vertex 31 7.5 -13.5
      vertex 31 7.5 0
    endloop
  endfacet
  facet normal 0 1 0
    outer loop
      vertex 28.3667 7.5 -14.5
      vertex 31 7.5 -13.5
      vertex 29.9667 7.5 -14.5
    endloop
  endfacet
  facet normal 0 1 -0
    outer loop
      vertex 34.5 7.5 -22.5
      vertex 31 7.5 -13.5
      vertex 34.5 7.5 0
    endloop
  endfacet
  facet normal 0 1 0
    outer loop
      vertex 34.5 7.5 -22.5
      vertex 29.9667 7.5 -14.5
      vertex 31 7.5 -13.5
    endloop
  endfacet
  facet normal 0 1 0
    outer loop
      vertex 29.9667 7.5 -14.5
      vertex 34.5 7.5 -22.5
      vertex 29.9667 7.5 -22.5
    endloop
  endfacet
  facet normal 0 1 0
    outer loop
      vertex 31 7.5 -13.5
      vertex 28.3667 7.5 -14.5
      vertex 13.3333 7.5 -13.5
    endloop
  endfacet
  facet normal 0 1 0
    outer loop
      vertex 13.3333 7.5 -22.5
      vertex 28.3667 7.5 -14.5
      vertex 28.3667 7.5 -22.5
    endloop
  endfacet
  facet normal 0 1 0
    outer loop
      vertex 28.3667 7.5 -14.5
      vertex 13.3333 7.5 -22.5
      vertex 13.3333 7.5 -13.5
    endloop
  endfacet
  facet normal 0 -1 0
    outer loop
      vertex 28.3267 -7.5 -22.5
      vertex 20 -7.5 -7.5
      vertex -28.3267 -7.5 -22.5
    endloop
  endfacet
  facet normal 0 -1 0
    outer loop
      vertex 20 -7.5 -7.5
      vertex 28.3267 -7.5 -22.5
      vertex 28.3267 -7.5 -14.1001
    endloop
  endfacet
  facet normal 0 -1 0
    outer loop
      vertex -34.5 -7.5 22.5
      vertex -20 -7.5 -7.5
      vertex -20 -7.5 22.5
    endloop
  endfacet
  facet normal 0 -1 0
    outer loop
      vertex -28.3267 -7.5 -14.1001
      vertex -20 -7.5 -7.5
      vertex -30.0067 -7.5 -14.1001
    endloop
  endfacet
  facet normal 0 -1 0
    outer loop
      vertex -34.5 -7.5 22.5
      vertex -30.0067 -7.5 -14.1001
      vertex -20 -7.5 -7.5
    endloop
  endfacet
  facet normal 0 -1 0
    outer loop
      vertex -34.5 -7.5 -22.5
      vertex -30.0067 -7.5 -14.1001
      vertex -34.5 -7.5 22.5
    endloop
  endfacet
  facet normal 0 -1 -0
    outer loop
      vertex -30.0067 -7.5 -14.1001
      vertex -34.5 -7.5 -22.5
      vertex -30.0067 -7.5 -22.5
    endloop
  endfacet
  facet normal 0 -1 0
    outer loop
      vertex 20 -7.5 -7.5
      vertex 34.5 -7.5 22.5
      vertex 20 -7.5 22.5
    endloop
  endfacet
  facet normal 0 -1 0
    outer loop
      vertex -28.3267 -7.5 -22.5
      vertex -20 -7.5 -7.5
      vertex -28.3267 -7.5 -14.1001
    endloop
  endfacet
  facet normal 0 -1 -0
    outer loop
      vertex -20 -7.5 -7.5
      vertex -28.3267 -7.5 -22.5
      vertex 20 -7.5 -7.5
    endloop
  endfacet
  facet normal 0 -1 0
    outer loop
      vertex 30.0067 -7.5 -14.1001
      vertex 20 -7.5 -7.5
      vertex 28.3267 -7.5 -14.1001
    endloop
  endfacet
  facet normal 0 -1 0
    outer loop
      vertex 20 -7.5 -7.5
      vertex 30.0067 -7.5 -14.1001
      vertex 34.5 -7.5 22.5
    endloop
  endfacet
  facet normal 0 -1 0
    outer loop
      vertex 34.5 -7.5 -22.5
      vertex 30.0067 -7.5 -14.1001
      vertex 30.0067 -7.5 -22.5
    endloop
  endfacet
  facet normal 0 -1 0
    outer loop
      vertex 30.0067 -7.5 -14.1001
      vertex 34.5 -7.5 -22.5
      vertex 34.5 -7.5 22.5
    endloop
  endfacet
  facet normal 1 -0 0
    outer loop
      vertex -31 -1 0
      vertex -31 7.5 -13.5
      vertex -31 7.5 0
    endloop
  endfacet
  facet normal 1 0 0
    outer loop
      vertex -31 7.5 -13.5
      vertex -31 -1 0
      vertex -31 -1 -13.5
    endloop
  endfacet
  facet normal -1 0 0
    outer loop
      vertex 31 -1 -13.5
      vertex 31 7.5 0
      vertex 31 7.5 -13.5
    endloop
  endfacet
  facet normal -1 -0 0
    outer loop
      vertex 31 7.5 0
      vertex 31 -1 -13.5
      vertex 31 -1 0
    endloop
  endfacet
  facet normal -0 0 1
    outer loop
      vertex -31 7.5 -13.5
      vertex -13.3333 -1 -13.5
      vertex -13.3333 7.5 -13.5
    endloop
  endfacet
  facet normal 0 0 1
    outer loop
      vertex -13.3333 -1 -13.5
      vertex -31 7.5 -13.5
      vertex -31 -1 -13.5
    endloop
  endfacet
  facet normal -0 0 1
    outer loop
      vertex 13.3333 7.5 -13.5
      vertex 31 -1 -13.5
      vertex 31 7.5 -13.5
    endloop
  endfacet
  facet normal 0 0 1
    outer loop
      vertex 31 -1 -13.5
      vertex 13.3333 7.5 -13.5
      vertex 13.3333 -1 -13.5
    endloop
  endfacet
  facet normal 0 1 0
    outer loop
      vertex 31 -1 0
      vertex 34.5 -1 22.5
      vertex 34.5 -1 0
    endloop
  endfacet
  facet normal 0 1 0
    outer loop
      vertex 34.5 -1 22.5
      vertex 31 -1 0
      vertex 20 -1 22.5
    endloop
  endfacet
  facet normal 0 1 0
    outer loop
      vertex 31 -1 0
      vertex 20 -1 -7.5
      vertex 20 -1 22.5
    endloop
  endfacet
  facet normal 0 1 0
    outer loop
      vertex 13.3333 -1 -13.5
      vertex 20 -1 -7.5
      vertex 31 -1 -13.5
    endloop
  endfacet
  facet normal 0 1 -0
    outer loop
      vertex 31 -1 -13.5
      vertex 20 -1 -7.5
      vertex 31 -1 0
    endloop
  endfacet
  facet normal 0 1 0
    outer loop
      vertex -20 -1 22.5
      vertex -31 -1 0
      vertex -34.5 -1 22.5
    endloop
  endfacet
  facet normal 0 1 -0
    outer loop
      vertex -20 -1 -7.5
      vertex -31 -1 0
      vertex -20 -1 22.5
    endloop
  endfacet
  facet normal 0 1 0
    outer loop
      vertex 20 -1 -7.5
      vertex 13.3333 -1 -13.5
      vertex -20 -1 -7.5
    endloop
  endfacet
  facet normal 0 1 -0
    outer loop
      vertex -13.3333 -1 -13.5
      vertex -20 -1 -7.5
      vertex 13.3333 -1 -13.5
    endloop
  endfacet
  facet normal 0 1 0
    outer loop
      vertex -31 -1 -13.5
      vertex -20 -1 -7.5
      vertex -13.3333 -1 -13.5
    endloop
  endfacet
  facet normal 0 1 0
    outer loop
      vertex -20 -1 -7.5
      vertex -31 -1 -13.5
      vertex -31 -1 0
    endloop
  endfacet
  facet normal 0 1 0
    outer loop
      vertex -34.5 -1 22.5
      vertex -31 -1 0
      vertex -34.5 -1 0
    endloop
  endfacet
  facet normal 0 1 -0
    outer loop
      vertex 13.3333 -1 -22.5
      vertex -13.3333 -1 -13.5
      vertex 13.3333 -1 -13.5
    endloop
  endfacet
  facet normal 0 1 0
    outer loop
      vertex -13.3333 -1 -13.5
      vertex 13.3333 -1 -22.5
      vertex -13.3333 -1 -22.5
    endloop
  endfacet
  facet normal -0 0 1
    outer loop
      vertex -34.5 7.5 0
      vertex -31 -1 0
      vertex -31 7.5 0
    endloop
  endfacet
  facet normal 0 0 1
    outer loop
      vertex -31 -1 0
      vertex -34.5 7.5 0
      vertex -34.5 -1 0
    endloop
  endfacet
  facet normal -0 0 1
    outer loop
      vertex 31 7.5 0
      vertex 34.5 -1 0
      vertex 34.5 7.5 0
    endloop
  endfacet
  facet normal 0 0 1
    outer loop
      vertex 34.5 -1 0
      vertex 31 7.5 0
      vertex 31 -1 0
    endloop
  endfacet
  facet normal 1 -0 0
    outer loop
      vertex -13.3333 -1 -13.5
      vertex -13.3333 7.5 -22.5
      vertex -13.3333 7.5 -13.5
    endloop
  endfacet
  facet normal 1 0 0
    outer loop
      vertex -13.3333 7.5 -22.5
      vertex -13.3333 -1 -13.5
      vertex -13.3333 -1 -22.5
    endloop
  endfacet
  facet normal -1 0 0
    outer loop
      vertex 13.3333 -1 -22.5
      vertex 13.3333 7.5 -13.5
      vertex 13.3333 7.5 -22.5
    endloop
  endfacet
  facet normal -1 -0 0
    outer loop
      vertex 13.3333 7.5 -13.5
      vertex 13.3333 -1 -22.5
      vertex 13.3333 -1 -13.5
    endloop
  endfacet
  facet normal 0.34202 -0.939693 0
    outer loop
      vertex 27.3669 1.08492 -22.5
      vertex 29.1667 1.74 -14.1001
      vertex 27.3669 1.08492 -14.1001
    endloop
  endfacet
  facet normal 0.34202 -0.939693 0
    outer loop
      vertex 29.1667 1.74 -14.1001
      vertex 27.3669 1.08492 -22.5
      vertex 29.1667 1.74 -22.5
    endloop
  endfacet
  facet normal 0 1 -0
    outer loop
      vertex 30.1243 -3.69114 -22.5
      vertex 30.0067 -3.69114 -14.1001
      vertex 30.1243 -3.69114 -14.1001
    endloop
  endfacet
  facet normal 0 1 0
    outer loop
      vertex 30.0067 -3.69114 -14.1001
      vertex 30.1243 -3.69114 -22.5
      vertex 30.0067 -3.69114 -22.5
    endloop
  endfacet
  facet normal 0 1 -0
    outer loop
      vertex 28.3267 -3.69114 -22.5
      vertex 28.209 -3.69114 -14.1001
      vertex 28.3267 -3.69114 -14.1001
    endloop
  endfacet
  facet normal 0 1 0
    outer loop
      vertex 28.209 -3.69114 -14.1001
      vertex 28.3267 -3.69114 -22.5
      vertex 28.209 -3.69114 -22.5
    endloop
  endfacet
  facet normal 0.984808 0.173649 0
    outer loop
      vertex 26.7418 -2.46 -14.1001
      vertex 26.4092 -0.573786 -22.5
      vertex 26.4092 -0.573786 -14.1001
    endloop
  endfacet
  facet normal 0.984808 0.173649 0
    outer loop
      vertex 26.4092 -0.573786 -22.5
      vertex 26.7418 -2.46 -14.1001
      vertex 26.7418 -2.46 -22.5
    endloop
  endfacet
  facet normal 0.866025 -0.5 0
    outer loop
      vertex 26.4092 -0.573786 -14.1001
      vertex 27.3669 1.08492 -22.5
      vertex 27.3669 1.08492 -14.1001
    endloop
  endfacet
  facet normal 0.866025 -0.5 0
    outer loop
      vertex 27.3669 1.08492 -22.5
      vertex 26.4092 -0.573786 -14.1001
      vertex 26.4092 -0.573786 -22.5
    endloop
  endfacet
  facet normal 0 0 -1
    outer loop
      vertex 28.3267 -3.69114 -14.1001
      vertex 30.0067 -3.69114 -14.1001
      vertex 30.0067 -7.5 -14.1001
    endloop
  endfacet
  facet normal 0 0 -1
    outer loop
      vertex 28.3267 -3.69114 -14.1001
      vertex 30.0067 -7.5 -14.1001
      vertex 28.3267 -7.5 -14.1001
    endloop
  endfacet
  facet normal 0 0 -1
    outer loop
      vertex 30.0067 -3.69114 -14.1001
      vertex 28.3267 -3.69114 -14.1001
      vertex 29.1667 1.74 -14.1001
    endloop
  endfacet
  facet normal 0 0 -1
    outer loop
      vertex 26.7418 -2.46 -14.1001
      vertex 28.3267 -3.69114 -14.1001
      vertex 28.209 -3.69114 -14.1001
    endloop
  endfacet
  facet normal 0 0 -1
    outer loop
      vertex 28.3267 -3.69114 -14.1001
      vertex 27.3669 1.08492 -14.1001
      vertex 29.1667 1.74 -14.1001
    endloop
  endfacet
  facet normal 0 0 -1
    outer loop
      vertex 26.4092 -0.573786 -14.1001
      vertex 28.3267 -3.69114 -14.1001
      vertex 26.7418 -2.46 -14.1001
    endloop
  endfacet
  facet normal 0 0 -1
    outer loop
      vertex 28.3267 -3.69114 -14.1001
      vertex 26.4092 -0.573786 -14.1001
      vertex 27.3669 1.08492 -14.1001
    endloop
  endfacet
  facet normal 0 0 -1
    outer loop
      vertex 30.0067 -3.69114 -14.1001
      vertex 31.9241 -0.573786 -14.1001
      vertex 31.5915 -2.46 -14.1001
    endloop
  endfacet
  facet normal 0 0 -1
    outer loop
      vertex 30.0067 -3.69114 -14.1001
      vertex 31.5915 -2.46 -14.1001
      vertex 30.1243 -3.69114 -14.1001
    endloop
  endfacet
  facet normal -0 0 -1
    outer loop
      vertex 31.9241 -0.573786 -14.1001
      vertex 30.0067 -3.69114 -14.1001
      vertex 30.9665 1.08492 -14.1001
    endloop
  endfacet
  facet normal -0 0 -1
    outer loop
      vertex 30.9665 1.08492 -14.1001
      vertex 30.0067 -3.69114 -14.1001
      vertex 29.1667 1.74 -14.1001
    endloop
  endfacet
  facet normal 0.642788 0.766044 -0
    outer loop
      vertex 28.209 -3.69114 -22.5
      vertex 26.7418 -2.46 -14.1001
      vertex 28.209 -3.69114 -14.1001
    endloop
  endfacet
  facet normal 0.642788 0.766044 0
    outer loop
      vertex 26.7418 -2.46 -14.1001
      vertex 28.209 -3.69114 -22.5
      vertex 26.7418 -2.46 -22.5
    endloop
  endfacet
  facet normal -0.866025 -0.5 0
    outer loop
      vertex 31.9241 -0.573786 -22.5
      vertex 30.9665 1.08492 -14.1001
      vertex 30.9665 1.08492 -22.5
    endloop
  endfacet
  facet normal -0.866025 -0.5 0
    outer loop
      vertex 30.9665 1.08492 -14.1001
      vertex 31.9241 -0.573786 -22.5
      vertex 31.9241 -0.573786 -14.1001
    endloop
  endfacet
  facet normal -0.642788 0.766044 0
    outer loop
      vertex 31.5915 -2.46 -22.5
      vertex 30.1243 -3.69114 -14.1001
      vertex 31.5915 -2.46 -14.1001
    endloop
  endfacet
  facet normal -0.642788 0.766044 0
    outer loop
      vertex 30.1243 -3.69114 -14.1001
      vertex 31.5915 -2.46 -22.5
      vertex 30.1243 -3.69114 -22.5
    endloop
  endfacet
  facet normal -0.984808 0.173648 0
    outer loop
      vertex 31.5915 -2.46 -22.5
      vertex 31.9241 -0.573786 -14.1001
      vertex 31.9241 -0.573786 -22.5
    endloop
  endfacet
  facet normal -0.984808 0.173648 0
    outer loop
      vertex 31.9241 -0.573786 -14.1001
      vertex 31.5915 -2.46 -22.5
      vertex 31.5915 -2.46 -14.1001
    endloop
  endfacet
  facet normal -0.34202 -0.939693 0
    outer loop
      vertex 29.1667 1.74 -22.5
      vertex 30.9665 1.08492 -14.1001
      vertex 29.1667 1.74 -14.1001
    endloop
  endfacet
  facet normal -0.34202 -0.939693 -0
    outer loop
      vertex 30.9665 1.08492 -14.1001
      vertex 29.1667 1.74 -22.5
      vertex 30.9665 1.08492 -22.5
    endloop
  endfacet
  facet normal -1 0 0
    outer loop
      vertex 30.0067 -7.5 -22.5
      vertex 30.0067 -3.69114 -14.1001
      vertex 30.0067 -3.69114 -22.5
    endloop
  endfacet
  facet normal -1 -0 0
    outer loop
      vertex 30.0067 -3.69114 -14.1001
      vertex 30.0067 -7.5 -22.5
      vertex 30.0067 -7.5 -14.1001
    endloop
  endfacet
  facet normal 1 -0 0
    outer loop
      vertex 28.3267 -7.5 -14.1001
      vertex 28.3267 -3.69114 -22.5
      vertex 28.3267 -3.69114 -14.1001
    endloop
  endfacet
  facet normal 1 0 0
    outer loop
      vertex 28.3267 -3.69114 -22.5
      vertex 28.3267 -7.5 -14.1001
      vertex 28.3267 -7.5 -22.5
    endloop
  endfacet
  facet normal 0.34202 -0.939693 0
    outer loop
      vertex -30.9665 1.08492 -22.5
      vertex -29.1667 1.74 -14.1001
      vertex -30.9665 1.08492 -14.1001
    endloop
  endfacet
  facet normal 0.34202 -0.939693 0
    outer loop
      vertex -29.1667 1.74 -14.1001
      vertex -30.9665 1.08492 -22.5
      vertex -29.1667 1.74 -22.5
    endloop
  endfacet
  facet normal 0 1 -0
    outer loop
      vertex -28.209 -3.69114 -22.5
      vertex -28.3267 -3.69114 -14.1001
      vertex -28.209 -3.69114 -14.1001
    endloop
  endfacet
  facet normal 0 1 0
    outer loop
      vertex -28.3267 -3.69114 -14.1001
      vertex -28.209 -3.69114 -22.5
      vertex -28.3267 -3.69114 -22.5
    endloop
  endfacet
  facet normal 0 1 -0
    outer loop
      vertex -30.0067 -3.69114 -22.5
      vertex -30.1243 -3.69114 -14.1001
      vertex -30.0067 -3.69114 -14.1001
    endloop
  endfacet
  facet normal 0 1 0
    outer loop
      vertex -30.1243 -3.69114 -14.1001
      vertex -30.0067 -3.69114 -22.5
      vertex -30.1243 -3.69114 -22.5
    endloop
  endfacet
  facet normal 0.984808 0.173648 0
    outer loop
      vertex -31.5915 -2.46 -14.1001
      vertex -31.9241 -0.573786 -22.5
      vertex -31.9241 -0.573786 -14.1001
    endloop
  endfacet
  facet normal 0.984808 0.173648 0
    outer loop
      vertex -31.9241 -0.573786 -22.5
      vertex -31.5915 -2.46 -14.1001
      vertex -31.5915 -2.46 -22.5
    endloop
  endfacet
  facet normal 0.866025 -0.5 0
    outer loop
      vertex -31.9241 -0.573786 -14.1001
      vertex -30.9665 1.08492 -22.5
      vertex -30.9665 1.08492 -14.1001
    endloop
  endfacet
  facet normal 0.866025 -0.5 0
    outer loop
      vertex -30.9665 1.08492 -22.5
      vertex -31.9241 -0.573786 -14.1001
      vertex -31.9241 -0.573786 -22.5
    endloop
  endfacet
  facet normal 0 0 -1
    outer loop
      vertex -30.0067 -3.69114 -14.1001
      vertex -28.3267 -3.69114 -14.1001
      vertex -28.3267 -7.5 -14.1001
    endloop
  endfacet
  facet normal 0 0 -1
    outer loop
      vertex -30.0067 -3.69114 -14.1001
      vertex -28.3267 -7.5 -14.1001
      vertex -30.0067 -7.5 -14.1001
    endloop
  endfacet
  facet normal 0 0 -1
    outer loop
      vertex -28.3267 -3.69114 -14.1001
      vertex -30.0067 -3.69114 -14.1001
      vertex -29.1667 1.74 -14.1001
    endloop
  endfacet
  facet normal 0 0 -1
    outer loop
      vertex -31.5915 -2.46 -14.1001
      vertex -30.0067 -3.69114 -14.1001
      vertex -30.1243 -3.69114 -14.1001
    endloop
  endfacet
  facet normal 0 0 -1
    outer loop
      vertex -30.0067 -3.69114 -14.1001
      vertex -30.9665 1.08492 -14.1001
      vertex -29.1667 1.74 -14.1001
    endloop
  endfacet
  facet normal 0 0 -1
    outer loop
      vertex -31.9241 -0.573786 -14.1001
      vertex -30.0067 -3.69114 -14.1001
      vertex -31.5915 -2.46 -14.1001
    endloop
  endfacet
  facet normal 0 0 -1
    outer loop
      vertex -30.0067 -3.69114 -14.1001
      vertex -31.9241 -0.573786 -14.1001
      vertex -30.9665 1.08492 -14.1001
    endloop
  endfacet
  facet normal 0 0 -1
    outer loop
      vertex -28.3267 -3.69114 -14.1001
      vertex -26.4092 -0.573786 -14.1001
      vertex -26.7418 -2.46 -14.1001
    endloop
  endfacet
  facet normal 0 0 -1
    outer loop
      vertex -28.3267 -3.69114 -14.1001
      vertex -26.7418 -2.46 -14.1001
      vertex -28.209 -3.69114 -14.1001
    endloop
  endfacet
  facet normal -0 0 -1
    outer loop
      vertex -26.4092 -0.573786 -14.1001
      vertex -28.3267 -3.69114 -14.1001
      vertex -27.3669 1.08492 -14.1001
    endloop
  endfacet
  facet normal -0 0 -1
    outer loop
      vertex -27.3669 1.08492 -14.1001
      vertex -28.3267 -3.69114 -14.1001
      vertex -29.1667 1.74 -14.1001
    endloop
  endfacet
  facet normal 0.642788 0.766044 -0
    outer loop
      vertex -30.1243 -3.69114 -22.5
      vertex -31.5915 -2.46 -14.1001
      vertex -30.1243 -3.69114 -14.1001
    endloop
  endfacet
  facet normal 0.642788 0.766044 0
    outer loop
      vertex -31.5915 -2.46 -14.1001
      vertex -30.1243 -3.69114 -22.5
      vertex -31.5915 -2.46 -22.5
    endloop
  endfacet
  facet normal -0.866025 -0.5 0
    outer loop
      vertex -26.4092 -0.573786 -22.5
      vertex -27.3669 1.08492 -14.1001
      vertex -27.3669 1.08492 -22.5
    endloop
  endfacet
  facet normal -0.866025 -0.5 0
    outer loop
      vertex -27.3669 1.08492 -14.1001
      vertex -26.4092 -0.573786 -22.5
      vertex -26.4092 -0.573786 -14.1001
    endloop
  endfacet
  facet normal -0.642788 0.766044 0
    outer loop
      vertex -26.7418 -2.46 -22.5
      vertex -28.209 -3.69114 -14.1001
      vertex -26.7418 -2.46 -14.1001
    endloop
  endfacet
  facet normal -0.642788 0.766044 0
    outer loop
      vertex -28.209 -3.69114 -14.1001
      vertex -26.7418 -2.46 -22.5
      vertex -28.209 -3.69114 -22.5
    endloop
  endfacet
  facet normal -0.984808 0.173649 0
    outer loop
      vertex -26.7418 -2.46 -22.5
      vertex -26.4092 -0.573786 -14.1001
      vertex -26.4092 -0.573786 -22.5
    endloop
  endfacet
  facet normal -0.984808 0.173649 0
    outer loop
      vertex -26.4092 -0.573786 -14.1001
      vertex -26.7418 -2.46 -22.5
      vertex -26.7418 -2.46 -14.1001
    endloop
  endfacet
  facet normal -0.34202 -0.939693 0
    outer loop
      vertex -29.1667 1.74 -22.5
      vertex -27.3669 1.08492 -14.1001
      vertex -29.1667 1.74 -14.1001
    endloop
  endfacet
  facet normal -0.34202 -0.939693 -0
    outer loop
      vertex -27.3669 1.08492 -14.1001
      vertex -29.1667 1.74 -22.5
      vertex -27.3669 1.08492 -22.5
    endloop
  endfacet
  facet normal -1 0 0
    outer loop
      vertex -28.3267 -7.5 -22.5
      vertex -28.3267 -3.69114 -14.1001
      vertex -28.3267 -3.69114 -22.5
    endloop
  endfacet
  facet normal -1 -0 0
    outer loop
      vertex -28.3267 -3.69114 -14.1001
      vertex -28.3267 -7.5 -22.5
      vertex -28.3267 -7.5 -14.1001
    endloop
  endfacet
  facet normal 1 -0 0
    outer loop
      vertex -30.0067 -7.5 -14.1001
      vertex -30.0067 -3.69114 -22.5
      vertex -30.0067 -3.69114 -14.1001
    endloop
  endfacet
  facet normal 1 0 0
    outer loop
      vertex -30.0067 -3.69114 -22.5
      vertex -30.0067 -7.5 -14.1001
      vertex -30.0067 -7.5 -22.5
    endloop
  endfacet
  facet normal 1 -0 0
    outer loop
      vertex -20 -7.5 22.5
      vertex -20 -1 -7.5
      vertex -20 -1 22.5
    endloop
  endfacet
  facet normal 1 0 0
    outer loop
      vertex -20 -1 -7.5
      vertex -20 -7.5 22.5
      vertex -20 -7.5 -7.5
    endloop
  endfacet
  facet normal -1 0 0
    outer loop
      vertex 20 -7.5 -7.5
      vertex 20 -1 22.5
      vertex 20 -1 -7.5
    endloop
  endfacet
  facet normal -1 -0 0
    outer loop
      vertex 20 -1 22.5
      vertex 20 -7.5 -7.5
      vertex 20 -7.5 22.5
    endloop
  endfacet
  facet normal -0 0 1
    outer loop
      vertex -20 -1 -7.5
      vertex 20 -7.5 -7.5
      vertex 20 -1 -7.5
    endloop
  endfacet
  facet normal 0 0 1
    outer loop
      vertex 20 -7.5 -7.5
      vertex -20 -1 -7.5
      vertex -20 -7.5 -7.5
    endloop
  endfacet
endsolid OpenSCAD_Model
