solid OpenSCAD_Model
  facet normal 1 -0 0
    outer loop
      vertex -31 -1 0
      vertex -31 7.5 -13.5
      vertex -31 7.5 0
    endloop
  endfacet
  facet normal 1 0 0
    outer loop
      vertex -31 7.5 -13.5
      vertex -31 -1 0
      vertex -31 -1 -13.5
    endloop
  endfacet
  facet normal -1 0 0
    outer loop
      vertex 31 -1 -13.5
      vertex 31 7.5 0
      vertex 31 7.5 -13.5
    endloop
  endfacet
  facet normal -1 -0 0
    outer loop
      vertex 31 7.5 0
      vertex 31 -1 -13.5
      vertex 31 -1 0
    endloop
  endfacet
  facet normal -0 0 1
    outer loop
      vertex -31 7.5 -13.5
      vertex -13.3333 -1 -13.5
      vertex -13.3333 7.5 -13.5
    endloop
  endfacet
  facet normal 0 0 1
    outer loop
      vertex -13.3333 -1 -13.5
      vertex -31 7.5 -13.5
      vertex -31 -1 -13.5
    endloop
  endfacet
  facet normal -0 0 1
    outer loop
      vertex 13.3333 7.5 -13.5
      vertex 31 -1 -13.5
      vertex 31 7.5 -13.5
    endloop
  endfacet
  facet normal 0 0 1
    outer loop
      vertex 31 -1 -13.5
      vertex 13.3333 7.5 -13.5
      vertex 13.3333 -1 -13.5
    endloop
  endfacet
  facet normal 0 1 0
    outer loop
      vertex 31 -1 0
      vertex 34.5 -1 22.5
      vertex 34.5 -1 0
    endloop
  endfacet
  facet normal 0 1 0
    outer loop
      vertex 34.5 -1 22.5
      vertex 31 -1 0
      vertex 20 -1 22.5
    endloop
  endfacet
  facet normal 0 1 0
    outer loop
      vertex 31 -1 0
      vertex 20 -1 -7.5
      vertex 20 -1 22.5
    endloop
  endfacet
  facet normal 0 1 0
    outer loop
      vertex 13.3333 -1 -13.5
      vertex 20 -1 -7.5
      vertex 31 -1 -13.5
    endloop
  endfacet
  facet normal 0 1 -0
    outer loop
      vertex 31 -1 -13.5
      vertex 20 -1 -7.5
      vertex 31 -1 0
    endloop
  endfacet
  facet normal 0 1 0
    outer loop
      vertex -20 -1 22.5
      vertex -31 -1 0
      vertex -34.5 -1 22.5
    endloop
  endfacet
  facet normal 0 1 -0
    outer loop
      vertex -20 -1 -7.5
      vertex -31 -1 0
      vertex -20 -1 22.5
    endloop
  endfacet
  facet normal 0 1 0
    outer loop
      vertex 20 -1 -7.5
      vertex 13.3333 -1 -13.5
      vertex -20 -1 -7.5
    endloop
  endfacet
  facet normal 0 1 -0
    outer loop
      vertex -13.3333 -1 -13.5
      vertex -20 -1 -7.5
      vertex 13.3333 -1 -13.5
    endloop
  endfacet
  facet normal 0 1 0
    outer loop
      vertex -31 -1 -13.5
      vertex -20 -1 -7.5
      vertex -13.3333 -1 -13.5
    endloop
  endfacet
  facet normal 0 1 0
    outer loop
      vertex -20 -1 -7.5
      vertex -31 -1 -13.5
      vertex -31 -1 0
    endloop
  endfacet
  facet normal 0 1 0
    outer loop
      vertex -34.5 -1 22.5
      vertex -31 -1 0
      vertex -34.5 -1 0
    endloop
  endfacet
  facet normal 0 1 -0
    outer loop
      vertex 13.3333 -1 -22.5
      vertex -13.3333 -1 -13.5
      vertex 13.3333 -1 -13.5
    endloop
  endfacet
  facet normal 0 1 0
    outer loop
      vertex -13.3333 -1 -13.5
      vertex 13.3333 -1 -22.5
      vertex -13.3333 -1 -22.5
    endloop
  endfacet
  facet normal -0 0 1
    outer loop
      vertex -34.5 -1 22.5
      vertex -20 -7.5 22.5
      vertex -20 -1 22.5
    endloop
  endfacet
  facet normal 0 0 1
    outer loop
      vertex -20 -7.5 22.5
      vertex -34.5 -1 22.5
      vertex -34.5 -7.5 22.5
    endloop
  endfacet
  facet normal -0 0 1
    outer loop
      vertex 20 -1 22.5
      vertex 34.5 -7.5 22.5
      vertex 34.5 -1 22.5
    endloop
  endfacet
  facet normal 0 0 1
    outer loop
      vertex 34.5 -7.5 22.5
      vertex 20 -1 22.5
      vertex 20 -7.5 22.5
    endloop
  endfacet
  facet normal -0 0 1
    outer loop
      vertex -34.5 7.5 0
      vertex -31 -1 0
      vertex -31 7.5 0
    endloop
  endfacet
  facet normal 0 0 1
    outer loop
      vertex -31 -1 0
      vertex -34.5 7.5 0
      vertex -34.5 -1 0
    endloop
  endfacet
  facet normal -0 0 1
    outer loop
      vertex 31 7.5 0
      vertex 34.5 -1 0
      vertex 34.5 7.5 0
    endloop
  endfacet
  facet normal 0 0 1
    outer loop
      vertex 34.5 -1 0
      vertex 31 7.5 0
      vertex 31 -1 0
    endloop
  endfacet
  facet normal 1 -0 0
    outer loop
      vertex -13.3333 -1 -13.5
      vertex -13.3333 7.5 -22.5
      vertex -13.3333 7.5 -13.5
    endloop
  endfacet
  facet normal 1 0 0
    outer loop
      vertex -13.3333 7.5 -22.5
      vertex -13.3333 -1 -13.5
      vertex -13.3333 -1 -22.5
    endloop
  endfacet
  facet normal -1 0 0
    outer loop
      vertex 13.3333 -1 -22.5
      vertex 13.3333 7.5 -13.5
      vertex 13.3333 7.5 -22.5
    endloop
  endfacet
  facet normal -1 -0 0
    outer loop
      vertex 13.3333 7.5 -13.5
      vertex 13.3333 -1 -22.5
      vertex 13.3333 -1 -13.5
    endloop
  endfacet
  facet normal 0 0 -1
    outer loop
      vertex -29.9667 -7.5 -22.5
      vertex -30.1426 -3.95459 -22.5
      vertex -29.9667 -3.95459 -22.5
    endloop
  endfacet
  facet normal 0 0 -1
    outer loop
      vertex -34.5 -7.5 -22.5
      vertex -30.1426 -3.95459 -22.5
      vertex -29.9667 -7.5 -22.5
    endloop
  endfacet
  facet normal -0 0 -1
    outer loop
      vertex -31.6377 -2.7 -22.5
      vertex -34.5 -7.5 -22.5
      vertex -31.9767 -0.777858 -22.5
    endloop
  endfacet
  facet normal -0 0 -1
    outer loop
      vertex -30.1426 -3.95459 -22.5
      vertex -34.5 -7.5 -22.5
      vertex -31.6377 -2.7 -22.5
    endloop
  endfacet
  facet normal 0 0 -1
    outer loop
      vertex 28.3667 -7.5 -22.5
      vertex 28.1908 -3.95459 -22.5
      vertex 28.3667 -3.95459 -22.5
    endloop
  endfacet
  facet normal 0 0 -1
    outer loop
      vertex 28.3667 -7.5 -22.5
      vertex 26.6956 -2.7 -22.5
      vertex 28.1908 -3.95459 -22.5
    endloop
  endfacet
  facet normal 0 0 -1
    outer loop
      vertex 26.6956 -2.7 -22.5
      vertex 13.3333 -1 -22.5
      vertex 26.3567 -0.777858 -22.5
    endloop
  endfacet
  facet normal 0 0 -1
    outer loop
      vertex 28.3667 -7.5 -22.5
      vertex 13.3333 -1 -22.5
      vertex 26.6956 -2.7 -22.5
    endloop
  endfacet
  facet normal 0 0 -1
    outer loop
      vertex 28.3667 -7.5 -22.5
      vertex -13.3333 -1 -22.5
      vertex 13.3333 -1 -22.5
    endloop
  endfacet
  facet normal 0 0 -1
    outer loop
      vertex -13.3333 -1 -22.5
      vertex -26.3567 -0.777858 -22.5
      vertex -13.3333 7.5 -22.5
    endloop
  endfacet
  facet normal 0 0 -1
    outer loop
      vertex -28.3667 -7.5 -22.5
      vertex -13.3333 -1 -22.5
      vertex 28.3667 -7.5 -22.5
    endloop
  endfacet
  facet normal -0 0 -1
    outer loop
      vertex -13.3333 -1 -22.5
      vertex -26.6956 -2.7 -22.5
      vertex -26.3567 -0.777858 -22.5
    endloop
  endfacet
  facet normal 0 0 -1
    outer loop
      vertex -13.3333 -1 -22.5
      vertex -28.3667 -7.5 -22.5
      vertex -26.6956 -2.7 -22.5
    endloop
  endfacet
  facet normal 0 0 -1
    outer loop
      vertex -26.6956 -2.7 -22.5
      vertex -28.3667 -7.5 -22.5
      vertex -28.1908 -3.95459 -22.5
    endloop
  endfacet
  facet normal -0 0 -1
    outer loop
      vertex -28.1908 -3.95459 -22.5
      vertex -28.3667 -7.5 -22.5
      vertex -28.3667 -3.95459 -22.5
    endloop
  endfacet
  facet normal 0 0 -1
    outer loop
      vertex 34.5 -7.5 -22.5
      vertex 31.9767 -0.777858 -22.5
      vertex 34.5 7.5 -22.5
    endloop
  endfacet
  facet normal 0 0 -1
    outer loop
      vertex 34.5 -7.5 -22.5
      vertex 31.6377 -2.7 -22.5
      vertex 31.9767 -0.777858 -22.5
    endloop
  endfacet
  facet normal 0 0 -1
    outer loop
      vertex 34.5 -7.5 -22.5
      vertex 30.1426 -3.95459 -22.5
      vertex 31.6377 -2.7 -22.5
    endloop
  endfacet
  facet normal 0 0 -1
    outer loop
      vertex 29.9667 -7.5 -22.5
      vertex 30.1426 -3.95459 -22.5
      vertex 34.5 -7.5 -22.5
    endloop
  endfacet
  facet normal -0 0 -1
    outer loop
      vertex 30.1426 -3.95459 -22.5
      vertex 29.9667 -7.5 -22.5
      vertex 29.9667 -3.95459 -22.5
    endloop
  endfacet
  facet normal 0 0 -1
    outer loop
      vertex 31.0008 0.912446 -22.5
      vertex 34.5 7.5 -22.5
      vertex 31.9767 -0.777858 -22.5
    endloop
  endfacet
  facet normal 0 0 -1
    outer loop
      vertex 29.1667 1.58 -22.5
      vertex 34.5 7.5 -22.5
      vertex 31.0008 0.912446 -22.5
    endloop
  endfacet
  facet normal 0 0 -1
    outer loop
      vertex 27.3326 0.912446 -22.5
      vertex 34.5 7.5 -22.5
      vertex 29.1667 1.58 -22.5
    endloop
  endfacet
  facet normal 0 0 -1
    outer loop
      vertex 13.3333 7.5 -22.5
      vertex 26.3567 -0.777858 -22.5
      vertex 13.3333 -1 -22.5
    endloop
  endfacet
  facet normal 0 0 -1
    outer loop
      vertex 26.3567 -0.777858 -22.5
      vertex 13.3333 7.5 -22.5
      vertex 27.3326 0.912446 -22.5
    endloop
  endfacet
  facet normal 0 0 -1
    outer loop
      vertex 27.3326 0.912446 -22.5
      vertex 13.3333 7.5 -22.5
      vertex 34.5 7.5 -22.5
    endloop
  endfacet
  facet normal 0 0 -1
    outer loop
      vertex -27.3326 0.912446 -22.5
      vertex -13.3333 7.5 -22.5
      vertex -26.3567 -0.777858 -22.5
    endloop
  endfacet
  facet normal 0 0 -1
    outer loop
      vertex -34.5 7.5 -22.5
      vertex -27.3326 0.912446 -22.5
      vertex -29.1667 1.58 -22.5
    endloop
  endfacet
  facet normal 0 0 -1
    outer loop
      vertex -34.5 7.5 -22.5
      vertex -29.1667 1.58 -22.5
      vertex -31.0008 0.912446 -22.5
    endloop
  endfacet
  facet normal 0 0 -1
    outer loop
      vertex -27.3326 0.912446 -22.5
      vertex -34.5 7.5 -22.5
      vertex -13.3333 7.5 -22.5
    endloop
  endfacet
  facet normal 0 0 -1
    outer loop
      vertex -31.9767 -0.777858 -22.5
      vertex -34.5 7.5 -22.5
      vertex -31.0008 0.912446 -22.5
    endloop
  endfacet
  facet normal 0 0 -1
    outer loop
      vertex -34.5 7.5 -22.5
      vertex -31.9767 -0.777858 -22.5
      vertex -34.5 -7.5 -22.5
    endloop
  endfacet
  facet normal -0.34202 0.939693 0
    outer loop
      vertex 29.1667 16.3 -22.5
      vertex 27.4526 15.6761 -14.9
      vertex 29.1667 16.3 -14.9
    endloop
  endfacet
  facet normal -0.34202 0.939693 0
    outer loop
      vertex 27.4526 15.6761 -14.9
      vertex 29.1667 16.3 -22.5
      vertex 27.4526 15.6761 -22.5
    endloop
  endfacet
  facet normal 0 -1 0
    outer loop
      vertex 29.9667 11.1275 -22.5
      vertex 30.0787 11.1275 -14.9
      vertex 29.9667 11.1275 -14.9
    endloop
  endfacet
  facet normal 0 -1 -0
    outer loop
      vertex 30.0787 11.1275 -14.9
      vertex 29.9667 11.1275 -22.5
      vertex 30.0787 11.1275 -22.5
    endloop
  endfacet
  facet normal 0 -1 0
    outer loop
      vertex 28.2546 11.1275 -22.5
      vertex 28.3667 11.1275 -14.9
      vertex 28.2546 11.1275 -14.9
    endloop
  endfacet
  facet normal 0 -1 -0
    outer loop
      vertex 28.3667 11.1275 -14.9
      vertex 28.2546 11.1275 -22.5
      vertex 28.3667 11.1275 -22.5
    endloop
  endfacet
  facet normal 0 0 -1
    outer loop
      vertex 28.3667 11.1275 -22.5
      vertex 29.9667 11.1275 -22.5
      vertex 29.9667 7.5 -22.5
    endloop
  endfacet
  facet normal 0 0 -1
    outer loop
      vertex 28.3667 11.1275 -22.5
      vertex 29.9667 7.5 -22.5
      vertex 28.3667 7.5 -22.5
    endloop
  endfacet
  facet normal 0 0 -1
    outer loop
      vertex 29.9667 11.1275 -22.5
      vertex 28.3667 11.1275 -22.5
      vertex 29.1667 16.3 -22.5
    endloop
  endfacet
  facet normal 0 0 -1
    outer loop
      vertex 26.8573 12.3 -22.5
      vertex 28.3667 11.1275 -22.5
      vertex 28.2546 11.1275 -22.5
    endloop
  endfacet
  facet normal 0 0 -1
    outer loop
      vertex 28.3667 11.1275 -22.5
      vertex 27.4526 15.6761 -22.5
      vertex 29.1667 16.3 -22.5
    endloop
  endfacet
  facet normal 0 0 -1
    outer loop
      vertex 26.5405 14.0964 -22.5
      vertex 28.3667 11.1275 -22.5
      vertex 26.8573 12.3 -22.5
    endloop
  endfacet
  facet normal 0 0 -1
    outer loop
      vertex 28.3667 11.1275 -22.5
      vertex 26.5405 14.0964 -22.5
      vertex 27.4526 15.6761 -22.5
    endloop
  endfacet
  facet normal 0 0 -1
    outer loop
      vertex 29.9667 11.1275 -22.5
      vertex 31.7928 14.0964 -22.5
      vertex 31.4761 12.3 -22.5
    endloop
  endfacet
  facet normal 0 0 -1
    outer loop
      vertex 29.9667 11.1275 -22.5
      vertex 31.4761 12.3 -22.5
      vertex 30.0787 11.1275 -22.5
    endloop
  endfacet
  facet normal -0 0 -1
    outer loop
      vertex 31.7928 14.0964 -22.5
      vertex 29.9667 11.1275 -22.5
      vertex 30.8808 15.6761 -22.5
    endloop
  endfacet
  facet normal -0 0 -1
    outer loop
      vertex 30.8808 15.6761 -22.5
      vertex 29.9667 11.1275 -22.5
      vertex 29.1667 16.3 -22.5
    endloop
  endfacet
  facet normal -0.984808 -0.173648 0
    outer loop
      vertex 26.8573 12.3 -22.5
      vertex 26.5405 14.0964 -14.9
      vertex 26.5405 14.0964 -22.5
    endloop
  endfacet
  facet normal -0.984808 -0.173648 0
    outer loop
      vertex 26.5405 14.0964 -14.9
      vertex 26.8573 12.3 -22.5
      vertex 26.8573 12.3 -14.9
    endloop
  endfacet
  facet normal -0.866025 0.5 0
    outer loop
      vertex 26.5405 14.0964 -22.5
      vertex 27.4526 15.6761 -14.9
      vertex 27.4526 15.6761 -22.5
    endloop
  endfacet
  facet normal -0.866025 0.5 0
    outer loop
      vertex 27.4526 15.6761 -14.9
      vertex 26.5405 14.0964 -22.5
      vertex 26.5405 14.0964 -14.9
    endloop
  endfacet
  facet normal -0 0 1
    outer loop
      vertex 27.4526 15.6761 -14.9
      vertex 28.3667 11.1275 -14.9
      vertex 29.1667 16.3 -14.9
    endloop
  endfacet
  facet normal -0 0 1
    outer loop
      vertex 26.5405 14.0964 -14.9
      vertex 28.3667 11.1275 -14.9
      vertex 27.4526 15.6761 -14.9
    endloop
  endfacet
  facet normal 0 0 1
    outer loop
      vertex 28.3667 11.1275 -14.9
      vertex 26.8573 12.3 -14.9
      vertex 28.2546 11.1275 -14.9
    endloop
  endfacet
  facet normal 0 0 1
    outer loop
      vertex 28.3667 11.1275 -14.9
      vertex 26.5405 14.0964 -14.9
      vertex 26.8573 12.3 -14.9
    endloop
  endfacet
  facet normal 0 0 1
    outer loop
      vertex 29.9667 11.1275 -14.9
      vertex 31.7928 14.0964 -14.9
      vertex 30.8808 15.6761 -14.9
    endloop
  endfacet
  facet normal 0 0 1
    outer loop
      vertex 31.7928 14.0964 -14.9
      vertex 29.9667 11.1275 -14.9
      vertex 31.4761 12.3 -14.9
    endloop
  endfacet
  facet normal 0 0 1
    outer loop
      vertex 31.4761 12.3 -14.9
      vertex 29.9667 11.1275 -14.9
      vertex 30.0787 11.1275 -14.9
    endloop
  endfacet
  facet normal 0 0 1
    outer loop
      vertex 29.1667 16.3 -14.9
      vertex 29.9667 11.1275 -14.9
      vertex 30.8808 15.6761 -14.9
    endloop
  endfacet
  facet normal 0 0 1
    outer loop
      vertex 28.3667 11.1275 -14.9
      vertex 29.9667 11.1275 -14.9
      vertex 29.1667 16.3 -14.9
    endloop
  endfacet
  facet normal 0 0 1
    outer loop
      vertex 29.9667 11.1275 -14.9
      vertex 28.3667 11.1275 -14.9
      vertex 29.9667 7.5 -14.9
    endloop
  endfacet
  facet normal 0 0 1
    outer loop
      vertex 29.9667 7.5 -14.9
      vertex 28.3667 11.1275 -14.9
      vertex 28.3667 7.5 -14.9
    endloop
  endfacet
  facet normal -0.642787 -0.766045 0
    outer loop
      vertex 26.8573 12.3 -22.5
      vertex 28.2546 11.1275 -14.9
      vertex 26.8573 12.3 -14.9
    endloop
  endfacet
  facet normal -0.642787 -0.766045 -0
    outer loop
      vertex 28.2546 11.1275 -14.9
      vertex 26.8573 12.3 -22.5
      vertex 28.2546 11.1275 -22.5
    endloop
  endfacet
  facet normal 0.866025 0.5 0
    outer loop
      vertex 31.7928 14.0964 -14.9
      vertex 30.8808 15.6761 -22.5
      vertex 30.8808 15.6761 -14.9
    endloop
  endfacet
  facet normal 0.866025 0.5 0
    outer loop
      vertex 30.8808 15.6761 -22.5
      vertex 31.7928 14.0964 -14.9
      vertex 31.7928 14.0964 -22.5
    endloop
  endfacet
  facet normal 0.642788 -0.766044 0
    outer loop
      vertex 30.0787 11.1275 -22.5
      vertex 31.4761 12.3 -14.9
      vertex 30.0787 11.1275 -14.9
    endloop
  endfacet
  facet normal 0.642788 -0.766044 0
    outer loop
      vertex 31.4761 12.3 -14.9
      vertex 30.0787 11.1275 -22.5
      vertex 31.4761 12.3 -22.5
    endloop
  endfacet
  facet normal 0.34202 0.939693 -0
    outer loop
      vertex 30.8808 15.6761 -22.5
      vertex 29.1667 16.3 -14.9
      vertex 30.8808 15.6761 -14.9
    endloop
  endfacet
  facet normal 0.34202 0.939693 0
    outer loop
      vertex 29.1667 16.3 -14.9
      vertex 30.8808 15.6761 -22.5
      vertex 29.1667 16.3 -22.5
    endloop
  endfacet
  facet normal 0.984808 -0.173648 0
    outer loop
      vertex 31.4761 12.3 -14.9
      vertex 31.7928 14.0964 -22.5
      vertex 31.7928 14.0964 -14.9
    endloop
  endfacet
  facet normal 0.984808 -0.173648 0
    outer loop
      vertex 31.7928 14.0964 -22.5
      vertex 31.4761 12.3 -14.9
      vertex 31.4761 12.3 -22.5
    endloop
  endfacet
  facet normal 1 -0 0
    outer loop
      vertex 29.9667 7.5 -14.9
      vertex 29.9667 11.1275 -22.5
      vertex 29.9667 11.1275 -14.9
    endloop
  endfacet
  facet normal 1 0 0
    outer loop
      vertex 29.9667 11.1275 -22.5
      vertex 29.9667 7.5 -14.9
      vertex 29.9667 7.5 -22.5
    endloop
  endfacet
  facet normal -1 0 0
    outer loop
      vertex 28.3667 7.5 -22.5
      vertex 28.3667 11.1275 -14.9
      vertex 28.3667 11.1275 -22.5
    endloop
  endfacet
  facet normal -1 -0 0
    outer loop
      vertex 28.3667 11.1275 -14.9
      vertex 28.3667 7.5 -22.5
      vertex 28.3667 7.5 -14.9
    endloop
  endfacet
  facet normal -0.34202 0.939693 0
    outer loop
      vertex -29.1667 16.3 -22.5
      vertex -30.8808 15.6761 -14.9
      vertex -29.1667 16.3 -14.9
    endloop
  endfacet
  facet normal -0.34202 0.939693 0
    outer loop
      vertex -30.8808 15.6761 -14.9
      vertex -29.1667 16.3 -22.5
      vertex -30.8808 15.6761 -22.5
    endloop
  endfacet
  facet normal 0 -1 0
    outer loop
      vertex -28.3667 11.1275 -22.5
      vertex -28.2546 11.1275 -14.9
      vertex -28.3667 11.1275 -14.9
    endloop
  endfacet
  facet normal 0 -1 -0
    outer loop
      vertex -28.2546 11.1275 -14.9
      vertex -28.3667 11.1275 -22.5
      vertex -28.2546 11.1275 -22.5
    endloop
  endfacet
  facet normal 0 -1 0
    outer loop
      vertex -30.0787 11.1275 -22.5
      vertex -29.9667 11.1275 -14.9
      vertex -30.0787 11.1275 -14.9
    endloop
  endfacet
  facet normal 0 -1 -0
    outer loop
      vertex -29.9667 11.1275 -14.9
      vertex -30.0787 11.1275 -22.5
      vertex -29.9667 11.1275 -22.5
    endloop
  endfacet
  facet normal 0 0 -1
    outer loop
      vertex -29.9667 11.1275 -22.5
      vertex -28.3667 11.1275 -22.5
      vertex -28.3667 7.5 -22.5
    endloop
  endfacet
  facet normal 0 0 -1
    outer loop
      vertex -29.9667 11.1275 -22.5
      vertex -28.3667 7.5 -22.5
      vertex -29.9667 7.5 -22.5
    endloop
  endfacet
  facet normal 0 0 -1
    outer loop
      vertex -28.3667 11.1275 -22.5
      vertex -29.9667 11.1275 -22.5
      vertex -29.1667 16.3 -22.5
    endloop
  endfacet
  facet normal 0 0 -1
    outer loop
      vertex -31.4761 12.3 -22.5
      vertex -29.9667 11.1275 -22.5
      vertex -30.0787 11.1275 -22.5
    endloop
  endfacet
  facet normal 0 0 -1
    outer loop
      vertex -29.9667 11.1275 -22.5
      vertex -30.8808 15.6761 -22.5
      vertex -29.1667 16.3 -22.5
    endloop
  endfacet
  facet normal 0 0 -1
    outer loop
      vertex -31.7928 14.0964 -22.5
      vertex -29.9667 11.1275 -22.5
      vertex -31.4761 12.3 -22.5
    endloop
  endfacet
  facet normal 0 0 -1
    outer loop
      vertex -29.9667 11.1275 -22.5
      vertex -31.7928 14.0964 -22.5
      vertex -30.8808 15.6761 -22.5
    endloop
  endfacet
  facet normal 0 0 -1
    outer loop
      vertex -28.3667 11.1275 -22.5
      vertex -26.5405 14.0964 -22.5
      vertex -26.8573 12.3 -22.5
    endloop
  endfacet
  facet normal 0 0 -1
    outer loop
      vertex -28.3667 11.1275 -22.5
      vertex -26.8573 12.3 -22.5
      vertex -28.2546 11.1275 -22.5
    endloop
  endfacet
  facet normal -0 0 -1
    outer loop
      vertex -26.5405 14.0964 -22.5
      vertex -28.3667 11.1275 -22.5
      vertex -27.4526 15.6761 -22.5
    endloop
  endfacet
  facet normal -0 0 -1
    outer loop
      vertex -27.4526 15.6761 -22.5
      vertex -28.3667 11.1275 -22.5
      vertex -29.1667 16.3 -22.5
    endloop
  endfacet
  facet normal -0.984808 -0.173648 0
    outer loop
      vertex -31.4761 12.3 -22.5
      vertex -31.7928 14.0964 -14.9
      vertex -31.7928 14.0964 -22.5
    endloop
  endfacet
  facet normal -0.984808 -0.173648 0
    outer loop
      vertex -31.7928 14.0964 -14.9
      vertex -31.4761 12.3 -22.5
      vertex -31.4761 12.3 -14.9
    endloop
  endfacet
  facet normal -0.866025 0.5 0
    outer loop
      vertex -31.7928 14.0964 -22.5
      vertex -30.8808 15.6761 -14.9
      vertex -30.8808 15.6761 -22.5
    endloop
  endfacet
  facet normal -0.866025 0.5 0
    outer loop
      vertex -30.8808 15.6761 -14.9
      vertex -31.7928 14.0964 -22.5
      vertex -31.7928 14.0964 -14.9
    endloop
  endfacet
  facet normal -0 0 1
    outer loop
      vertex -30.8808 15.6761 -14.9
      vertex -29.9667 11.1275 -14.9
      vertex -29.1667 16.3 -14.9
    endloop
  endfacet
  facet normal -0 0 1
    outer loop
      vertex -31.7928 14.0964 -14.9
      vertex -29.9667 11.1275 -14.9
      vertex -30.8808 15.6761 -14.9
    endloop
  endfacet
  facet normal 0 0 1
    outer loop
      vertex -29.9667 11.1275 -14.9
      vertex -31.4761 12.3 -14.9
      vertex -30.0787 11.1275 -14.9
    endloop
  endfacet
  facet normal 0 0 1
    outer loop
      vertex -29.9667 11.1275 -14.9
      vertex -31.7928 14.0964 -14.9
      vertex -31.4761 12.3 -14.9
    endloop
  endfacet
  facet normal 0 0 1
    outer loop
      vertex -28.3667 11.1275 -14.9
      vertex -26.5405 14.0964 -14.9
      vertex -27.4526 15.6761 -14.9
    endloop
  endfacet
  facet normal 0 0 1
    outer loop
      vertex -26.5405 14.0964 -14.9
      vertex -28.3667 11.1275 -14.9
      vertex -26.8573 12.3 -14.9
    endloop
  endfacet
  facet normal 0 0 1
    outer loop
      vertex -26.8573 12.3 -14.9
      vertex -28.3667 11.1275 -14.9
      vertex -28.2546 11.1275 -14.9
    endloop
  endfacet
  facet normal 0 0 1
    outer loop
      vertex -29.1667 16.3 -14.9
      vertex -28.3667 11.1275 -14.9
      vertex -27.4526 15.6761 -14.9
    endloop
  endfacet
  facet normal 0 0 1
    outer loop
      vertex -29.9667 11.1275 -14.9
      vertex -28.3667 11.1275 -14.9
      vertex -29.1667 16.3 -14.9
    endloop
  endfacet
  facet normal 0 0 1
    outer loop
      vertex -28.3667 11.1275 -14.9
      vertex -29.9667 11.1275 -14.9
      vertex -28.3667 7.5 -14.9
    endloop
  endfacet
  facet normal 0 0 1
    outer loop
      vertex -28.3667 7.5 -14.9
      vertex -29.9667 11.1275 -14.9
      vertex -29.9667 7.5 -14.9
    endloop
  endfacet
  facet normal -0.642788 -0.766044 0
    outer loop
      vertex -31.4761 12.3 -22.5
      vertex -30.0787 11.1275 -14.9
      vertex -31.4761 12.3 -14.9
    endloop
  endfacet
  facet normal -0.642788 -0.766044 -0
    outer loop
      vertex -30.0787 11.1275 -14.9
      vertex -31.4761 12.3 -22.5
      vertex -30.0787 11.1275 -22.5
    endloop
  endfacet
  facet normal 0.866025 0.5 0
    outer loop
      vertex -26.5405 14.0964 -14.9
      vertex -27.4526 15.6761 -22.5
      vertex -27.4526 15.6761 -14.9
    endloop
  endfacet
  facet normal 0.866025 0.5 0
    outer loop
      vertex -27.4526 15.6761 -22.5
      vertex -26.5405 14.0964 -14.9
      vertex -26.5405 14.0964 -22.5
    endloop
  endfacet
  facet normal 0.642787 -0.766045 0
    outer loop
      vertex -28.2546 11.1275 -22.5
      vertex -26.8573 12.3 -14.9
      vertex -28.2546 11.1275 -14.9
    endloop
  endfacet
  facet normal 0.642787 -0.766045 0
    outer loop
      vertex -26.8573 12.3 -14.9
      vertex -28.2546 11.1275 -22.5
      vertex -26.8573 12.3 -22.5
    endloop
  endfacet
  facet normal 0.34202 0.939693 -0
    outer loop
      vertex -27.4526 15.6761 -22.5
      vertex -29.1667 16.3 -14.9
      vertex -27.4526 15.6761 -14.9
    endloop
  endfacet
  facet normal 0.34202 0.939693 0
    outer loop
      vertex -29.1667 16.3 -14.9
      vertex -27.4526 15.6761 -22.5
      vertex -29.1667 16.3 -22.5
    endloop
  endfacet
  facet normal 0.984808 -0.173648 0
    outer loop
      vertex -26.8573 12.3 -14.9
      vertex -26.5405 14.0964 -22.5
      vertex -26.5405 14.0964 -14.9
    endloop
  endfacet
  facet normal 0.984808 -0.173648 0
    outer loop
      vertex -26.5405 14.0964 -22.5
      vertex -26.8573 12.3 -14.9
      vertex -26.8573 12.3 -22.5
    endloop
  endfacet
  facet normal 1 -0 0
    outer loop
      vertex -28.3667 7.5 -14.9
      vertex -28.3667 11.1275 -22.5
      vertex -28.3667 11.1275 -14.9
    endloop
  endfacet
  facet normal 1 0 0
    outer loop
      vertex -28.3667 11.1275 -22.5
      vertex -28.3667 7.5 -14.9
      vertex -28.3667 7.5 -22.5
    endloop
  endfacet
  facet normal -1 0 0
    outer loop
      vertex -29.9667 7.5 -22.5
      vertex -29.9667 11.1275 -14.9
      vertex -29.9667 11.1275 -22.5
    endloop
  endfacet
  facet normal -1 -0 0
    outer loop
      vertex -29.9667 11.1275 -14.9
      vertex -29.9667 7.5 -22.5
      vertex -29.9667 7.5 -14.9
    endloop
  endfacet
  facet normal -1 0 0
    outer loop
      vertex -34.5 7.5 -22.5
      vertex -34.5 -1 0
      vertex -34.5 7.5 0
    endloop
  endfacet
  facet normal -1 0 0
    outer loop
      vertex -34.5 -7.5 -22.5
      vertex -34.5 -1 0
      vertex -34.5 7.5 -22.5
    endloop
  endfacet
  facet normal -1 0 0
    outer loop
      vertex -34.5 -7.5 22.5
      vertex -34.5 -1 0
      vertex -34.5 -7.5 -22.5
    endloop
  endfacet
  facet normal -1 0 0
    outer loop
      vertex -34.5 -1 0
      vertex -34.5 -7.5 22.5
      vertex -34.5 -1 22.5
    endloop
  endfacet
  facet normal 1 0 0
    outer loop
      vertex 34.5 -1 22.5
      vertex 34.5 -7.5 22.5
      vertex 34.5 -1 0
    endloop
  endfacet
  facet normal 1 -0 0
    outer loop
      vertex 34.5 -1 0
      vertex 34.5 7.5 -22.5
      vertex 34.5 7.5 0
    endloop
  endfacet
  facet normal 1 0 0
    outer loop
      vertex 34.5 -1 0
      vertex 34.5 -7.5 -22.5
      vertex 34.5 7.5 -22.5
    endloop
  endfacet
  facet normal 1 0 0
    outer loop
      vertex 34.5 -7.5 -22.5
      vertex 34.5 -1 0
      vertex 34.5 -7.5 22.5
    endloop
  endfacet
  facet normal 0 -1 0
    outer loop
      vertex 28.3667 -7.5 -22.5
      vertex 20 -7.5 -7.5
      vertex -28.3667 -7.5 -22.5
    endloop
  endfacet
  facet normal 0 -1 0
    outer loop
      vertex 20 -7.5 -7.5
      vertex 28.3667 -7.5 -22.5
      vertex 28.3667 -7.5 -14.3681
    endloop
  endfacet
  facet normal 0 -1 0
    outer loop
      vertex -34.5 -7.5 22.5
      vertex -20 -7.5 -7.5
      vertex -20 -7.5 22.5
    endloop
  endfacet
  facet normal 0 -1 0
    outer loop
      vertex -28.3667 -7.5 -14.3681
      vertex -20 -7.5 -7.5
      vertex -29.9667 -7.5 -14.3681
    endloop
  endfacet
  facet normal 0 -1 0
    outer loop
      vertex -34.5 -7.5 22.5
      vertex -29.9667 -7.5 -14.3681
      vertex -20 -7.5 -7.5
    endloop
  endfacet
  facet normal 0 -1 0
    outer loop
      vertex -34.5 -7.5 -22.5
      vertex -29.9667 -7.5 -14.3681
      vertex -34.5 -7.5 22.5
    endloop
  endfacet
  facet normal 0 -1 -0
    outer loop
      vertex -29.9667 -7.5 -14.3681
      vertex -34.5 -7.5 -22.5
      vertex -29.9667 -7.5 -22.5
    endloop
  endfacet
  facet normal 0 -1 0
    outer loop
      vertex 20 -7.5 -7.5
      vertex 34.5 -7.5 22.5
      vertex 20 -7.5 22.5
    endloop
  endfacet
  facet normal 0 -1 0
    outer loop
      vertex -28.3667 -7.5 -22.5
      vertex -20 -7.5 -7.5
      vertex -28.3667 -7.5 -14.3681
    endloop
  endfacet
  facet normal 0 -1 -0
    outer loop
      vertex -20 -7.5 -7.5
      vertex -28.3667 -7.5 -22.5
      vertex 20 -7.5 -7.5
    endloop
  endfacet
  facet normal 0 -1 0
    outer loop
      vertex 29.9667 -7.5 -14.3681
      vertex 20 -7.5 -7.5
      vertex 28.3667 -7.5 -14.3681
    endloop
  endfacet
  facet normal 0 -1 0
    outer loop
      vertex 20 -7.5 -7.5
      vertex 29.9667 -7.5 -14.3681
      vertex 34.5 -7.5 22.5
    endloop
  endfacet
  facet normal 0 -1 0
    outer loop
      vertex 34.5 -7.5 -22.5
      vertex 29.9667 -7.5 -14.3681
      vertex 29.9667 -7.5 -22.5
    endloop
  endfacet
  facet normal 0 -1 0
    outer loop
      vertex 29.9667 -7.5 -14.3681
      vertex 34.5 -7.5 -22.5
      vertex 34.5 -7.5 22.5
    endloop
  endfacet
  facet normal 0 1 0
    outer loop
      vertex -13.3333 7.5 -13.5
      vertex -28.3667 7.5 -14.9
      vertex -31 7.5 -13.5
    endloop
  endfacet
  facet normal 0 1 -0
    outer loop
      vertex -13.3333 7.5 -22.5
      vertex -28.3667 7.5 -14.9
      vertex -13.3333 7.5 -13.5
    endloop
  endfacet
  facet normal 0 1 0
    outer loop
      vertex -28.3667 7.5 -14.9
      vertex -13.3333 7.5 -22.5
      vertex -28.3667 7.5 -22.5
    endloop
  endfacet
  facet normal 0 1 -0
    outer loop
      vertex -31 7.5 -13.5
      vertex -34.5 7.5 0
      vertex -31 7.5 0
    endloop
  endfacet
  facet normal 0 1 -0
    outer loop
      vertex -29.9667 7.5 -14.9
      vertex -31 7.5 -13.5
      vertex -28.3667 7.5 -14.9
    endloop
  endfacet
  facet normal 0 1 0
    outer loop
      vertex -34.5 7.5 -22.5
      vertex -29.9667 7.5 -14.9
      vertex -29.9667 7.5 -22.5
    endloop
  endfacet
  facet normal 0 1 0
    outer loop
      vertex -29.9667 7.5 -14.9
      vertex -34.5 7.5 -22.5
      vertex -31 7.5 -13.5
    endloop
  endfacet
  facet normal 0 1 0
    outer loop
      vertex -31 7.5 -13.5
      vertex -34.5 7.5 -22.5
      vertex -34.5 7.5 0
    endloop
  endfacet
  facet normal 0 0 0
    outer loop
      vertex -28.3667 7.5 -22.5
      vertex -13.3333 7.5 -22.5
      vertex -34.5 7.5 -22.5
    endloop
  endfacet
  facet normal 0 0 0
    outer loop
      vertex -34.5 7.5 -22.5
      vertex -29.9667 7.5 -22.5
      vertex -28.3667 7.5 -22.5
    endloop
  endfacet
  facet normal 0 1 0
    outer loop
      vertex 34.5 7.5 0
      vertex 31 7.5 -13.5
      vertex 31 7.5 0
    endloop
  endfacet
  facet normal 0 1 0
    outer loop
      vertex 28.3667 7.5 -14.9
      vertex 31 7.5 -13.5
      vertex 29.9667 7.5 -14.9
    endloop
  endfacet
  facet normal 0 1 -0
    outer loop
      vertex 34.5 7.5 -22.5
      vertex 31 7.5 -13.5
      vertex 34.5 7.5 0
    endloop
  endfacet
  facet normal 0 1 0
    outer loop
      vertex 34.5 7.5 -22.5
      vertex 29.9667 7.5 -14.9
      vertex 31 7.5 -13.5
    endloop
  endfacet
  facet normal 0 1 0
    outer loop
      vertex 29.9667 7.5 -14.9
      vertex 34.5 7.5 -22.5
      vertex 29.9667 7.5 -22.5
    endloop
  endfacet
  facet normal 0 1 0
    outer loop
      vertex 31 7.5 -13.5
      vertex 28.3667 7.5 -14.9
      vertex 13.3333 7.5 -13.5
    endloop
  endfacet
  facet normal 0 1 0
    outer loop
      vertex 13.3333 7.5 -22.5
      vertex 28.3667 7.5 -14.9
      vertex 28.3667 7.5 -22.5
    endloop
  endfacet
  facet normal 0 1 0
    outer loop
      vertex 28.3667 7.5 -14.9
      vertex 13.3333 7.5 -22.5
      vertex 13.3333 7.5 -13.5
    endloop
  endfacet
  facet normal 0 0 0
    outer loop
      vertex 29.9667 7.5 -22.5
      vertex 34.5 7.5 -22.5
      vertex 13.3333 7.5 -22.5
    endloop
  endfacet
  facet normal 0 0 0
    outer loop
      vertex 13.3333 7.5 -22.5
      vertex 28.3667 7.5 -22.5
      vertex 29.9667 7.5 -22.5
    endloop
  endfacet
  facet normal 0.342021 -0.939692 0
    outer loop
      vertex 27.3326 0.912446 -22.5
      vertex 29.1667 1.58 -14.3681
      vertex 27.3326 0.912446 -14.3681
    endloop
  endfacet
  facet normal 0.342021 -0.939692 0
    outer loop
      vertex 29.1667 1.58 -14.3681
      vertex 27.3326 0.912446 -22.5
      vertex 29.1667 1.58 -22.5
    endloop
  endfacet
  facet normal 0 1 -0
    outer loop
      vertex 30.1426 -3.95459 -22.5
      vertex 29.9667 -3.95459 -14.3681
      vertex 30.1426 -3.95459 -14.3681
    endloop
  endfacet
  facet normal 0 1 0
    outer loop
      vertex 29.9667 -3.95459 -14.3681
      vertex 30.1426 -3.95459 -22.5
      vertex 29.9667 -3.95459 -22.5
    endloop
  endfacet
  facet normal 0 1 -0
    outer loop
      vertex 28.3667 -3.95459 -22.5
      vertex 28.1908 -3.95459 -14.3681
      vertex 28.3667 -3.95459 -14.3681
    endloop
  endfacet
  facet normal 0 1 0
    outer loop
      vertex 28.1908 -3.95459 -14.3681
      vertex 28.3667 -3.95459 -22.5
      vertex 28.1908 -3.95459 -22.5
    endloop
  endfacet
  facet normal 0.984808 0.173648 0
    outer loop
      vertex 26.6956 -2.7 -14.3681
      vertex 26.3567 -0.777858 -22.5
      vertex 26.3567 -0.777858 -14.3681
    endloop
  endfacet
  facet normal 0.984808 0.173648 0
    outer loop
      vertex 26.3567 -0.777858 -22.5
      vertex 26.6956 -2.7 -14.3681
      vertex 26.6956 -2.7 -22.5
    endloop
  endfacet
  facet normal 0.866025 -0.500001 0
    outer loop
      vertex 26.3567 -0.777858 -14.3681
      vertex 27.3326 0.912446 -22.5
      vertex 27.3326 0.912446 -14.3681
    endloop
  endfacet
  facet normal 0.866025 -0.500001 0
    outer loop
      vertex 27.3326 0.912446 -22.5
      vertex 26.3567 -0.777858 -14.3681
      vertex 26.3567 -0.777858 -22.5
    endloop
  endfacet
  facet normal 0 0 -1
    outer loop
      vertex 28.3667 -3.95459 -14.3681
      vertex 29.9667 -3.95459 -14.3681
      vertex 29.9667 -7.5 -14.3681
    endloop
  endfacet
  facet normal 0 0 -1
    outer loop
      vertex 28.3667 -3.95459 -14.3681
      vertex 29.9667 -7.5 -14.3681
      vertex 28.3667 -7.5 -14.3681
    endloop
  endfacet
  facet normal 0 0 -1
    outer loop
      vertex 29.9667 -3.95459 -14.3681
      vertex 28.3667 -3.95459 -14.3681
      vertex 29.1667 1.58 -14.3681
    endloop
  endfacet
  facet normal 0 0 -1
    outer loop
      vertex 26.6956 -2.7 -14.3681
      vertex 28.3667 -3.95459 -14.3681
      vertex 28.1908 -3.95459 -14.3681
    endloop
  endfacet
  facet normal 0 0 -1
    outer loop
      vertex 28.3667 -3.95459 -14.3681
      vertex 27.3326 0.912446 -14.3681
      vertex 29.1667 1.58 -14.3681
    endloop
  endfacet
  facet normal 0 0 -1
    outer loop
      vertex 26.3567 -0.777858 -14.3681
      vertex 28.3667 -3.95459 -14.3681
      vertex 26.6956 -2.7 -14.3681
    endloop
  endfacet
  facet normal 0 0 -1
    outer loop
      vertex 28.3667 -3.95459 -14.3681
      vertex 26.3567 -0.777858 -14.3681
      vertex 27.3326 0.912446 -14.3681
    endloop
  endfacet
  facet normal 0 0 -1
    outer loop
      vertex 29.9667 -3.95459 -14.3681
      vertex 31.9767 -0.777858 -14.3681
      vertex 31.6377 -2.7 -14.3681
    endloop
  endfacet
  facet normal 0 0 -1
    outer loop
      vertex 29.9667 -3.95459 -14.3681
      vertex 31.6377 -2.7 -14.3681
      vertex 30.1426 -3.95459 -14.3681
    endloop
  endfacet
  facet normal -0 0 -1
    outer loop
      vertex 31.9767 -0.777858 -14.3681
      vertex 29.9667 -3.95459 -14.3681
      vertex 31.0008 0.912446 -14.3681
    endloop
  endfacet
  facet normal -0 0 -1
    outer loop
      vertex 31.0008 0.912446 -14.3681
      vertex 29.9667 -3.95459 -14.3681
      vertex 29.1667 1.58 -14.3681
    endloop
  endfacet
  facet normal 0.642788 0.766044 -0
    outer loop
      vertex 28.1908 -3.95459 -22.5
      vertex 26.6956 -2.7 -14.3681
      vertex 28.1908 -3.95459 -14.3681
    endloop
  endfacet
  facet normal 0.642788 0.766044 0
    outer loop
      vertex 26.6956 -2.7 -14.3681
      vertex 28.1908 -3.95459 -22.5
      vertex 26.6956 -2.7 -22.5
    endloop
  endfacet
  facet normal -0.866026 -0.5 0
    outer loop
      vertex 31.9767 -0.777858 -22.5
      vertex 31.0008 0.912446 -14.3681
      vertex 31.0008 0.912446 -22.5
    endloop
  endfacet
  facet normal -0.866026 -0.5 0
    outer loop
      vertex 31.0008 0.912446 -14.3681
      vertex 31.9767 -0.777858 -22.5
      vertex 31.9767 -0.777858 -14.3681
    endloop
  endfacet
  facet normal -0.642787 0.766045 0
    outer loop
      vertex 31.6377 -2.7 -22.5
      vertex 30.1426 -3.95459 -14.3681
      vertex 31.6377 -2.7 -14.3681
    endloop
  endfacet
  facet normal -0.642787 0.766045 0
    outer loop
      vertex 30.1426 -3.95459 -14.3681
      vertex 31.6377 -2.7 -22.5
      vertex 30.1426 -3.95459 -22.5
    endloop
  endfacet
  facet normal -0.984808 0.173648 0
    outer loop
      vertex 31.6377 -2.7 -22.5
      vertex 31.9767 -0.777858 -14.3681
      vertex 31.9767 -0.777858 -22.5
    endloop
  endfacet
  facet normal -0.984808 0.173648 0
    outer loop
      vertex 31.9767 -0.777858 -14.3681
      vertex 31.6377 -2.7 -22.5
      vertex 31.6377 -2.7 -14.3681
    endloop
  endfacet
  facet normal -0.34202 -0.939693 0
    outer loop
      vertex 29.1667 1.58 -22.5
      vertex 31.0008 0.912446 -14.3681
      vertex 29.1667 1.58 -14.3681
    endloop
  endfacet
  facet normal -0.34202 -0.939693 -0
    outer loop
      vertex 31.0008 0.912446 -14.3681
      vertex 29.1667 1.58 -22.5
      vertex 31.0008 0.912446 -22.5
    endloop
  endfacet
  facet normal -1 0 0
    outer loop
      vertex 29.9667 -7.5 -22.5
      vertex 29.9667 -3.95459 -14.3681
      vertex 29.9667 -3.95459 -22.5
    endloop
  endfacet
  facet normal -1 -0 0
    outer loop
      vertex 29.9667 -3.95459 -14.3681
      vertex 29.9667 -7.5 -22.5
      vertex 29.9667 -7.5 -14.3681
    endloop
  endfacet
  facet normal 1 -0 0
    outer loop
      vertex 28.3667 -7.5 -14.3681
      vertex 28.3667 -3.95459 -22.5
      vertex 28.3667 -3.95459 -14.3681
    endloop
  endfacet
  facet normal 1 0 0
    outer loop
      vertex 28.3667 -3.95459 -22.5
      vertex 28.3667 -7.5 -14.3681
      vertex 28.3667 -7.5 -22.5
    endloop
  endfacet
  facet normal 0.34202 -0.939693 0
    outer loop
      vertex -31.0008 0.912446 -22.5
      vertex -29.1667 1.58 -14.3681
      vertex -31.0008 0.912446 -14.3681
    endloop
  endfacet
  facet normal 0.34202 -0.939693 0
    outer loop
      vertex -29.1667 1.58 -14.3681
      vertex -31.0008 0.912446 -22.5
      vertex -29.1667 1.58 -22.5
    endloop
  endfacet
  facet normal 0 1 -0
    outer loop
      vertex -28.1908 -3.95459 -22.5
      vertex -28.3667 -3.95459 -14.3681
      vertex -28.1908 -3.95459 -14.3681
    endloop
  endfacet
  facet normal 0 1 0
    outer loop
      vertex -28.3667 -3.95459 -14.3681
      vertex -28.1908 -3.95459 -22.5
      vertex -28.3667 -3.95459 -22.5
    endloop
  endfacet
  facet normal 0 1 -0
    outer loop
      vertex -29.9667 -3.95459 -22.5
      vertex -30.1426 -3.95459 -14.3681
      vertex -29.9667 -3.95459 -14.3681
    endloop
  endfacet
  facet normal 0 1 0
    outer loop
      vertex -30.1426 -3.95459 -14.3681
      vertex -29.9667 -3.95459 -22.5
      vertex -30.1426 -3.95459 -22.5
    endloop
  endfacet
  facet normal 0.984808 0.173648 0
    outer loop
      vertex -31.6377 -2.7 -14.3681
      vertex -31.9767 -0.777858 -22.5
      vertex -31.9767 -0.777858 -14.3681
    endloop
  endfacet
  facet normal 0.984808 0.173648 0
    outer loop
      vertex -31.9767 -0.777858 -22.5
      vertex -31.6377 -2.7 -14.3681
      vertex -31.6377 -2.7 -22.5
    endloop
  endfacet
  facet normal 0.866026 -0.5 0
    outer loop
      vertex -31.9767 -0.777858 -14.3681
      vertex -31.0008 0.912446 -22.5
      vertex -31.0008 0.912446 -14.3681
    endloop
  endfacet
  facet normal 0.866026 -0.5 0
    outer loop
      vertex -31.0008 0.912446 -22.5
      vertex -31.9767 -0.777858 -14.3681
      vertex -31.9767 -0.777858 -22.5
    endloop
  endfacet
  facet normal 0 0 -1
    outer loop
      vertex -29.9667 -3.95459 -14.3681
      vertex -28.3667 -3.95459 -14.3681
      vertex -28.3667 -7.5 -14.3681
    endloop
  endfacet
  facet normal 0 0 -1
    outer loop
      vertex -29.9667 -3.95459 -14.3681
      vertex -28.3667 -7.5 -14.3681
      vertex -29.9667 -7.5 -14.3681
    endloop
  endfacet
  facet normal 0 0 -1
    outer loop
      vertex -28.3667 -3.95459 -14.3681
      vertex -29.9667 -3.95459 -14.3681
      vertex -29.1667 1.58 -14.3681
    endloop
  endfacet
  facet normal 0 0 -1
    outer loop
      vertex -31.6377 -2.7 -14.3681
      vertex -29.9667 -3.95459 -14.3681
      vertex -30.1426 -3.95459 -14.3681
    endloop
  endfacet
  facet normal 0 0 -1
    outer loop
      vertex -29.9667 -3.95459 -14.3681
      vertex -31.0008 0.912446 -14.3681
      vertex -29.1667 1.58 -14.3681
    endloop
  endfacet
  facet normal 0 0 -1
    outer loop
      vertex -31.9767 -0.777858 -14.3681
      vertex -29.9667 -3.95459 -14.3681
      vertex -31.6377 -2.7 -14.3681
    endloop
  endfacet
  facet normal 0 0 -1
    outer loop
      vertex -29.9667 -3.95459 -14.3681
      vertex -31.9767 -0.777858 -14.3681
      vertex -31.0008 0.912446 -14.3681
    endloop
  endfacet
  facet normal 0 0 -1
    outer loop
      vertex -28.3667 -3.95459 -14.3681
      vertex -26.3567 -0.777858 -14.3681
      vertex -26.6956 -2.7 -14.3681
    endloop
  endfacet
  facet normal 0 0 -1
    outer loop
      vertex -28.3667 -3.95459 -14.3681
      vertex -26.6956 -2.7 -14.3681
      vertex -28.1908 -3.95459 -14.3681
    endloop
  endfacet
  facet normal -0 0 -1
    outer loop
      vertex -26.3567 -0.777858 -14.3681
      vertex -28.3667 -3.95459 -14.3681
      vertex -27.3326 0.912446 -14.3681
    endloop
  endfacet
  facet normal -0 0 -1
    outer loop
      vertex -27.3326 0.912446 -14.3681
      vertex -28.3667 -3.95459 -14.3681
      vertex -29.1667 1.58 -14.3681
    endloop
  endfacet
  facet normal 0.642787 0.766045 -0
    outer loop
      vertex -30.1426 -3.95459 -22.5
      vertex -31.6377 -2.7 -14.3681
      vertex -30.1426 -3.95459 -14.3681
    endloop
  endfacet
  facet normal 0.642787 0.766045 0
    outer loop
      vertex -31.6377 -2.7 -14.3681
      vertex -30.1426 -3.95459 -22.5
      vertex -31.6377 -2.7 -22.5
    endloop
  endfacet
  facet normal -0.866025 -0.500001 0
    outer loop
      vertex -26.3567 -0.777858 -22.5
      vertex -27.3326 0.912446 -14.3681
      vertex -27.3326 0.912446 -22.5
    endloop
  endfacet
  facet normal -0.866025 -0.500001 0
    outer loop
      vertex -27.3326 0.912446 -14.3681
      vertex -26.3567 -0.777858 -22.5
      vertex -26.3567 -0.777858 -14.3681
    endloop
  endfacet
  facet normal -0.642788 0.766044 0
    outer loop
      vertex -26.6956 -2.7 -22.5
      vertex -28.1908 -3.95459 -14.3681
      vertex -26.6956 -2.7 -14.3681
    endloop
  endfacet
  facet normal -0.642788 0.766044 0
    outer loop
      vertex -28.1908 -3.95459 -14.3681
      vertex -26.6956 -2.7 -22.5
      vertex -28.1908 -3.95459 -22.5
    endloop
  endfacet
  facet normal -0.984808 0.173648 0
    outer loop
      vertex -26.6956 -2.7 -22.5
      vertex -26.3567 -0.777858 -14.3681
      vertex -26.3567 -0.777858 -22.5
    endloop
  endfacet
  facet normal -0.984808 0.173648 0
    outer loop
      vertex -26.3567 -0.777858 -14.3681
      vertex -26.6956 -2.7 -22.5
      vertex -26.6956 -2.7 -14.3681
    endloop
  endfacet
  facet normal -0.342021 -0.939692 0
    outer loop
      vertex -29.1667 1.58 -22.5
      vertex -27.3326 0.912446 -14.3681
      vertex -29.1667 1.58 -14.3681
    endloop
  endfacet
  facet normal -0.342021 -0.939692 -0
    outer loop
      vertex -27.3326 0.912446 -14.3681
      vertex -29.1667 1.58 -22.5
      vertex -27.3326 0.912446 -22.5
    endloop
  endfacet
  facet normal -1 0 0
    outer loop
      vertex -28.3667 -7.5 -22.5
      vertex -28.3667 -3.95459 -14.3681
      vertex -28.3667 -3.95459 -22.5
    endloop
  endfacet
  facet normal -1 -0 0
    outer loop
      vertex -28.3667 -3.95459 -14.3681
      vertex -28.3667 -7.5 -22.5
      vertex -28.3667 -7.5 -14.3681
    endloop
  endfacet
  facet normal 1 -0 0
    outer loop
      vertex -29.9667 -7.5 -14.3681
      vertex -29.9667 -3.95459 -22.5
      vertex -29.9667 -3.95459 -14.3681
    endloop
  endfacet
  facet normal 1 0 0
    outer loop
      vertex -29.9667 -3.95459 -22.5
      vertex -29.9667 -7.5 -14.3681
      vertex -29.9667 -7.5 -22.5
    endloop
  endfacet
  facet normal 1 -0 0
    outer loop
      vertex -20 -7.5 22.5
      vertex -20 -1 -7.5
      vertex -20 -1 22.5
    endloop
  endfacet
  facet normal 1 0 0
    outer loop
      vertex -20 -1 -7.5
      vertex -20 -7.5 22.5
      vertex -20 -7.5 -7.5
    endloop
  endfacet
  facet normal -1 0 0
    outer loop
      vertex 20 -7.5 -7.5
      vertex 20 -1 22.5
      vertex 20 -1 -7.5
    endloop
  endfacet
  facet normal -1 -0 0
    outer loop
      vertex 20 -1 22.5
      vertex 20 -7.5 -7.5
      vertex 20 -7.5 22.5
    endloop
  endfacet
  facet normal -0 0 1
    outer loop
      vertex -20 -1 -7.5
      vertex 20 -7.5 -7.5
      vertex 20 -1 -7.5
    endloop
  endfacet
  facet normal 0 0 1
    outer loop
      vertex 20 -7.5 -7.5
      vertex -20 -1 -7.5
      vertex -20 -7.5 -7.5
    endloop
  endfacet
endsolid OpenSCAD_Model
